<?xml version="1.0" encoding="utf-8" ?>
<svg xmlns="http://www.w3.org/2000/svg" xmlns:ev="http://www.w3.org/2001/xml-events" xmlns:xlink="http://www.w3.org/1999/xlink" baseProfile="full" height="100%" version="1.1" viewBox="-101.0,-51.0,803.0,253.0" width="100%">
  <defs/>
  <g id="bkgnd">
    <rect fill="white" height="253.0" stroke="none" stroke-width="1" width="803.0" x="-101.0" y="-51.0"/>
  </g>
  <g id="symbol" transform="translate(0,0)">
    <rect fill="none" height="100" stroke="none" width="100" x="-50.0" y="-50.0"/>
    <polygon fill="white" points="50.0,0 -50.0,-50.0 -50.0,50.0" stroke="black" stroke-linecap="round" stroke-width="1"/>
  </g>
  <g id="text">
    <text fill="black" font-family="sans-serif" font-size="18" text-anchor="middle" x="-12.5" y="7.2">As</text>
  </g>
  <g id="symbol" transform="translate(-50.0,-25.0)">
    <rect fill="none" height="50" stroke="none" width="100" x="-50.0" y="-25.0"/>
    <circle cx="0" cy="0" fill="blue" r="4" stroke="blue" stroke-width="1"/>
  </g>
  <g id="text">
    <text fill="black" font-family="sans-serif" font-size="18" text-anchor="end" x="-59.0" y="-17.8">pi</text>
  </g>
  <g id="symbol" transform="translate(-50.0,0)">
    <rect fill="none" height="50" stroke="none" width="100" x="-50.0" y="-25.0"/>
    <circle cx="0" cy="0" fill="blue" r="4" stroke="blue" stroke-width="1"/>
  </g>
  <g id="text">
    <text fill="black" font-family="sans-serif" font-size="18" text-anchor="end" x="-59.0" y="7.2">i</text>
  </g>
  <g id="symbol" transform="translate(-50.0,25.0)">
    <rect fill="none" height="50" stroke="none" width="100" x="-50.0" y="-25.0"/>
    <circle cx="0" cy="0" fill="blue" r="4" stroke="blue" stroke-width="1"/>
  </g>
  <g id="text">
    <text fill="black" font-family="sans-serif" font-size="18" text-anchor="end" x="-59.0" y="32.2">ni</text>
  </g>
  <g id="symbol" transform="translate(50.0,25.0)">
    <rect fill="none" height="50" stroke="none" width="100" x="-50.0" y="-25.0"/>
    <circle cx="0" cy="0" fill="blue" r="4" stroke="blue" stroke-width="1"/>
  </g>
  <g id="text">
    <text fill="black" font-family="sans-serif" font-size="18" text-anchor="start" x="59.0" y="32.2">po</text>
  </g>
  <g id="symbol" transform="translate(50.0,0)">
    <rect fill="none" height="50" stroke="none" width="100" x="-50.0" y="-25.0"/>
    <circle cx="0" cy="0" fill="blue" r="4" stroke="blue" stroke-width="1"/>
  </g>
  <g id="text">
    <text fill="black" font-family="sans-serif" font-size="18" text-anchor="start" x="59.0" y="7.2">o</text>
  </g>
  <g id="symbol" transform="translate(50.0,-25.0)">
    <rect fill="none" height="50" stroke="none" width="100" x="-50.0" y="-25.0"/>
    <circle cx="0" cy="0" fill="blue" r="4" stroke="blue" stroke-width="1"/>
  </g>
  <g id="text">
    <text fill="black" font-family="sans-serif" font-size="18" text-anchor="start" x="59.0" y="-17.8">no</text>
  </g>
  <g id="symbol" transform="translate(200,0)">
    <rect fill="none" height="100" stroke="none" width="100" x="-50.0" y="-50.0"/>
    <polygon fill="white" points="50.0,0 -50.0,-50.0 -50.0,50.0" stroke="black" stroke-linecap="round" stroke-width="1"/>
    <line stroke="black" stroke-linecap="round" stroke-width="1" x1="-45.0" x2="-31.0" y1="25.0" y2="25.0"/>
    <line stroke="black" stroke-linecap="round" stroke-width="1" x1="-45.0" x2="-31.0" y1="-25.0" y2="-25.0"/>
    <line stroke="black" stroke-linecap="round" stroke-width="1" x1="-38.0" x2="-38.0" y1="-18.0" y2="-32.0"/>
  </g>
  <g id="text">
    <text fill="black" font-family="sans-serif" font-size="18" text-anchor="middle" x="187.5" y="7.2">Ao</text>
  </g>
  <g id="symbol" transform="translate(150.0,-25.0)">
    <rect fill="none" height="50" stroke="none" width="100" x="-50.0" y="-25.0"/>
    <circle cx="0" cy="0" fill="blue" r="4" stroke="blue" stroke-width="1"/>
  </g>
  <g id="text">
    <text fill="black" font-family="sans-serif" font-size="18" text-anchor="end" x="141.0" y="-17.8">pi</text>
  </g>
  <g id="symbol" transform="translate(150.0,0)">
    <rect fill="none" height="50" stroke="none" width="100" x="-50.0" y="-25.0"/>
    <circle cx="0" cy="0" fill="blue" r="4" stroke="blue" stroke-width="1"/>
  </g>
  <g id="text">
    <text fill="black" font-family="sans-serif" font-size="18" text-anchor="end" x="141.0" y="7.2">i</text>
  </g>
  <g id="symbol" transform="translate(150.0,25.0)">
    <rect fill="none" height="50" stroke="none" width="100" x="-50.0" y="-25.0"/>
    <circle cx="0" cy="0" fill="blue" r="4" stroke="blue" stroke-width="1"/>
  </g>
  <g id="text">
    <text fill="black" font-family="sans-serif" font-size="18" text-anchor="end" x="141.0" y="32.2">ni</text>
  </g>
  <g id="symbol" transform="translate(250.0,25.0)">
    <rect fill="none" height="50" stroke="none" width="100" x="-50.0" y="-25.0"/>
    <circle cx="0" cy="0" fill="blue" r="4" stroke="blue" stroke-width="1"/>
  </g>
  <g id="text">
    <text fill="black" font-family="sans-serif" font-size="18" text-anchor="start" x="259.0" y="32.2">po</text>
  </g>
  <g id="symbol" transform="translate(250.0,0)">
    <rect fill="none" height="50" stroke="none" width="100" x="-50.0" y="-25.0"/>
    <circle cx="0" cy="0" fill="blue" r="4" stroke="blue" stroke-width="1"/>
  </g>
  <g id="text">
    <text fill="black" font-family="sans-serif" font-size="18" text-anchor="start" x="259.0" y="7.2">o</text>
  </g>
  <g id="symbol" transform="translate(250.0,-25.0)">
    <rect fill="none" height="50" stroke="none" width="100" x="-50.0" y="-25.0"/>
    <circle cx="0" cy="0" fill="blue" r="4" stroke="blue" stroke-width="1"/>
  </g>
  <g id="text">
    <text fill="black" font-family="sans-serif" font-size="18" text-anchor="start" x="259.0" y="-17.8">no</text>
  </g>
  <g id="symbol" transform="translate(400,0)">
    <rect fill="none" height="100" stroke="none" width="100" x="-50.0" y="-50.0"/>
    <polygon fill="white" points="50.0,0 -50.0,-50.0 -50.0,50.0" stroke="black" stroke-linecap="round" stroke-width="1"/>
    <line stroke="black" stroke-linecap="round" stroke-width="1" x1="-45.0" x2="-31.0" y1="25.0" y2="25.0"/>
    <line stroke="black" stroke-linecap="round" stroke-width="1" x1="-45.0" x2="-31.0" y1="-25.0" y2="-25.0"/>
    <line stroke="black" stroke-linecap="round" stroke-width="1" x1="-38.0" x2="-38.0" y1="-18.0" y2="-32.0"/>
    <line stroke="black" stroke-linecap="round" stroke-width="1" x1="-23" x2="-9" y1="-25.0" y2="-25.0"/>
    <line stroke="black" stroke-linecap="round" stroke-width="1" x1="-23" x2="-9" y1="25.0" y2="25.0"/>
    <line stroke="black" stroke-linecap="round" stroke-width="1" x1="-16.0" x2="-16.0" y1="31.0" y2="18.0"/>
    <line stroke="black" stroke-linecap="round" stroke-width="1" x1="0" x2="50.0" y1="25.0" y2="25.0"/>
    <line stroke="black" stroke-linecap="round" stroke-width="1" x1="0" x2="50.0" y1="-25.0" y2="-25.0"/>
  </g>
  <g id="text">
    <text fill="black" font-family="sans-serif" font-size="18" text-anchor="middle" x="387.5" y="7.2">Ad</text>
  </g>
  <g id="symbol" transform="translate(350.0,-25.0)">
    <rect fill="none" height="50" stroke="none" width="100" x="-50.0" y="-25.0"/>
    <circle cx="0" cy="0" fill="blue" r="4" stroke="blue" stroke-width="1"/>
  </g>
  <g id="text">
    <text fill="black" font-family="sans-serif" font-size="18" text-anchor="end" x="341.0" y="-17.8">pi</text>
  </g>
  <g id="symbol" transform="translate(350.0,0)">
    <rect fill="none" height="50" stroke="none" width="100" x="-50.0" y="-25.0"/>
    <circle cx="0" cy="0" fill="blue" r="4" stroke="blue" stroke-width="1"/>
  </g>
  <g id="text">
    <text fill="black" font-family="sans-serif" font-size="18" text-anchor="end" x="341.0" y="7.2">i</text>
  </g>
  <g id="symbol" transform="translate(350.0,25.0)">
    <rect fill="none" height="50" stroke="none" width="100" x="-50.0" y="-25.0"/>
    <circle cx="0" cy="0" fill="blue" r="4" stroke="blue" stroke-width="1"/>
  </g>
  <g id="text">
    <text fill="black" font-family="sans-serif" font-size="18" text-anchor="end" x="341.0" y="32.2">ni</text>
  </g>
  <g id="symbol" transform="translate(450.0,25.0)">
    <rect fill="none" height="50" stroke="none" width="100" x="-50.0" y="-25.0"/>
    <circle cx="0" cy="0" fill="blue" r="4" stroke="blue" stroke-width="1"/>
  </g>
  <g id="text">
    <text fill="black" font-family="sans-serif" font-size="18" text-anchor="start" x="459.0" y="32.2">po</text>
  </g>
  <g id="symbol" transform="translate(450.0,0)">
    <rect fill="none" height="50" stroke="none" width="100" x="-50.0" y="-25.0"/>
    <circle cx="0" cy="0" fill="blue" r="4" stroke="blue" stroke-width="1"/>
  </g>
  <g id="text">
    <text fill="black" font-family="sans-serif" font-size="18" text-anchor="start" x="459.0" y="7.2">o</text>
  </g>
  <g id="symbol" transform="translate(450.0,-25.0)">
    <rect fill="none" height="50" stroke="none" width="100" x="-50.0" y="-25.0"/>
    <circle cx="0" cy="0" fill="blue" r="4" stroke="blue" stroke-width="1"/>
  </g>
  <g id="text">
    <text fill="black" font-family="sans-serif" font-size="18" text-anchor="start" x="459.0" y="-17.8">no</text>
  </g>
  <g id="symbol" transform="translate(600,0)">
    <rect fill="none" height="100" stroke="none" width="100" x="-50.0" y="-50.0"/>
    <polygon fill="white" points="50.0,0 -50.0,-50.0 -50.0,50.0" stroke="black" stroke-linecap="round" stroke-width="1"/>
    <line stroke="black" stroke-linecap="round" stroke-width="1" x1="-45.0" x2="-31.0" y1="25.0" y2="25.0"/>
    <line stroke="black" stroke-linecap="round" stroke-width="1" x1="-45.0" x2="-31.0" y1="-25.0" y2="-25.0"/>
    <line stroke="black" stroke-linecap="round" stroke-width="1" x1="-38.0" x2="-38.0" y1="-18.0" y2="-32.0"/>
    <polyline fill="none" points="-42.5,12.5 -37.5,12.5 -37.5,-12.5 -32.5,-12.5" stroke="black" stroke-linecap="round" stroke-width="1"/>
  </g>
  <g id="text">
    <text fill="black" font-family="sans-serif" font-size="18" text-anchor="middle" x="597.5" y="7.2">Ac</text>
  </g>
  <g id="symbol" transform="translate(550.0,-25.0)">
    <rect fill="none" height="50" stroke="none" width="100" x="-50.0" y="-25.0"/>
    <circle cx="0" cy="0" fill="blue" r="4" stroke="blue" stroke-width="1"/>
  </g>
  <g id="text">
    <text fill="black" font-family="sans-serif" font-size="18" text-anchor="end" x="541.0" y="-17.8">pi</text>
  </g>
  <g id="symbol" transform="translate(550.0,0)">
    <rect fill="none" height="50" stroke="none" width="100" x="-50.0" y="-25.0"/>
    <circle cx="0" cy="0" fill="blue" r="4" stroke="blue" stroke-width="1"/>
  </g>
  <g id="text">
    <text fill="black" font-family="sans-serif" font-size="18" text-anchor="end" x="541.0" y="7.2">i</text>
  </g>
  <g id="symbol" transform="translate(550.0,25.0)">
    <rect fill="none" height="50" stroke="none" width="100" x="-50.0" y="-25.0"/>
    <circle cx="0" cy="0" fill="blue" r="4" stroke="blue" stroke-width="1"/>
  </g>
  <g id="text">
    <text fill="black" font-family="sans-serif" font-size="18" text-anchor="end" x="541.0" y="32.2">ni</text>
  </g>
  <g id="symbol" transform="translate(650.0,25.0)">
    <rect fill="none" height="50" stroke="none" width="100" x="-50.0" y="-25.0"/>
    <circle cx="0" cy="0" fill="blue" r="4" stroke="blue" stroke-width="1"/>
  </g>
  <g id="text">
    <text fill="black" font-family="sans-serif" font-size="18" text-anchor="start" x="659.0" y="32.2">po</text>
  </g>
  <g id="symbol" transform="translate(650.0,0)">
    <rect fill="none" height="50" stroke="none" width="100" x="-50.0" y="-25.0"/>
    <circle cx="0" cy="0" fill="blue" r="4" stroke="blue" stroke-width="1"/>
  </g>
  <g id="text">
    <text fill="black" font-family="sans-serif" font-size="18" text-anchor="start" x="659.0" y="7.2">o</text>
  </g>
  <g id="symbol" transform="translate(650.0,-25.0)">
    <rect fill="none" height="50" stroke="none" width="100" x="-50.0" y="-25.0"/>
    <circle cx="0" cy="0" fill="blue" r="4" stroke="blue" stroke-width="1"/>
  </g>
  <g id="text">
    <text fill="black" font-family="sans-serif" font-size="18" text-anchor="start" x="659.0" y="-17.8">no</text>
  </g>
  <g id="symbol" transform="translate(0,150)">
    <rect fill="none" height="100" stroke="none" width="100" x="-50.0" y="-50.0"/>
    <polygon fill="white" points="50.0,0 0,-50.0 -50.0,-50.0 -50.0,50.0 0,50.0" stroke="black" stroke-linecap="round" stroke-width="1"/>
  </g>
  <g id="text">
    <text fill="black" font-family="sans-serif" font-size="18" text-anchor="middle" x="-12.5" y="157.2">Cs</text>
  </g>
  <g id="symbol" transform="translate(-50.0,125.0)">
    <rect fill="none" height="50" stroke="none" width="100" x="-50.0" y="-25.0"/>
    <circle cx="0" cy="0" fill="blue" r="4" stroke="blue" stroke-width="1"/>
  </g>
  <g id="text">
    <text fill="black" font-family="sans-serif" font-size="18" text-anchor="end" x="-59.0" y="132.2">pi</text>
  </g>
  <g id="symbol" transform="translate(-50.0,150)">
    <rect fill="none" height="50" stroke="none" width="100" x="-50.0" y="-25.0"/>
    <circle cx="0" cy="0" fill="blue" r="4" stroke="blue" stroke-width="1"/>
  </g>
  <g id="text">
    <text fill="black" font-family="sans-serif" font-size="18" text-anchor="end" x="-59.0" y="157.2">i</text>
  </g>
  <g id="symbol" transform="translate(-50.0,175.0)">
    <rect fill="none" height="50" stroke="none" width="100" x="-50.0" y="-25.0"/>
    <circle cx="0" cy="0" fill="blue" r="4" stroke="blue" stroke-width="1"/>
  </g>
  <g id="text">
    <text fill="black" font-family="sans-serif" font-size="18" text-anchor="end" x="-59.0" y="182.2">ni</text>
  </g>
  <g id="symbol" transform="translate(50.0,175.0)">
    <rect fill="none" height="50" stroke="none" width="100" x="-50.0" y="-25.0"/>
    <circle cx="0" cy="0" fill="blue" r="4" stroke="blue" stroke-width="1"/>
  </g>
  <g id="text">
    <text fill="black" font-family="sans-serif" font-size="18" text-anchor="start" x="59.0" y="182.2">po</text>
  </g>
  <g id="symbol" transform="translate(50.0,150)">
    <rect fill="none" height="50" stroke="none" width="100" x="-50.0" y="-25.0"/>
    <circle cx="0" cy="0" fill="blue" r="4" stroke="blue" stroke-width="1"/>
  </g>
  <g id="text">
    <text fill="black" font-family="sans-serif" font-size="18" text-anchor="start" x="59.0" y="157.2">o</text>
  </g>
  <g id="symbol" transform="translate(50.0,125.0)">
    <rect fill="none" height="50" stroke="none" width="100" x="-50.0" y="-25.0"/>
    <circle cx="0" cy="0" fill="blue" r="4" stroke="blue" stroke-width="1"/>
  </g>
  <g id="text">
    <text fill="black" font-family="sans-serif" font-size="18" text-anchor="start" x="59.0" y="132.2">no</text>
  </g>
  <g id="symbol" transform="translate(200,150)">
    <rect fill="none" height="100" stroke="none" width="100" x="-50.0" y="-50.0"/>
    <polygon fill="white" points="50.0,0 0,-50.0 -50.0,-50.0 -50.0,50.0 0,50.0" stroke="black" stroke-linecap="round" stroke-width="1"/>
    <line stroke="black" stroke-linecap="round" stroke-width="1" x1="-45.0" x2="-31.0" y1="25.0" y2="25.0"/>
    <line stroke="black" stroke-linecap="round" stroke-width="1" x1="-45.0" x2="-31.0" y1="-25.0" y2="-25.0"/>
    <line stroke="black" stroke-linecap="round" stroke-width="1" x1="-38.0" x2="-38.0" y1="-18.0" y2="-32.0"/>
  </g>
  <g id="text">
    <text fill="black" font-family="sans-serif" font-size="18" text-anchor="middle" x="187.5" y="157.2">Co</text>
  </g>
  <g id="symbol" transform="translate(150.0,125.0)">
    <rect fill="none" height="50" stroke="none" width="100" x="-50.0" y="-25.0"/>
    <circle cx="0" cy="0" fill="blue" r="4" stroke="blue" stroke-width="1"/>
  </g>
  <g id="text">
    <text fill="black" font-family="sans-serif" font-size="18" text-anchor="end" x="141.0" y="132.2">pi</text>
  </g>
  <g id="symbol" transform="translate(150.0,150)">
    <rect fill="none" height="50" stroke="none" width="100" x="-50.0" y="-25.0"/>
    <circle cx="0" cy="0" fill="blue" r="4" stroke="blue" stroke-width="1"/>
  </g>
  <g id="text">
    <text fill="black" font-family="sans-serif" font-size="18" text-anchor="end" x="141.0" y="157.2">i</text>
  </g>
  <g id="symbol" transform="translate(150.0,175.0)">
    <rect fill="none" height="50" stroke="none" width="100" x="-50.0" y="-25.0"/>
    <circle cx="0" cy="0" fill="blue" r="4" stroke="blue" stroke-width="1"/>
  </g>
  <g id="text">
    <text fill="black" font-family="sans-serif" font-size="18" text-anchor="end" x="141.0" y="182.2">ni</text>
  </g>
  <g id="symbol" transform="translate(250.0,175.0)">
    <rect fill="none" height="50" stroke="none" width="100" x="-50.0" y="-25.0"/>
    <circle cx="0" cy="0" fill="blue" r="4" stroke="blue" stroke-width="1"/>
  </g>
  <g id="text">
    <text fill="black" font-family="sans-serif" font-size="18" text-anchor="start" x="259.0" y="182.2">po</text>
  </g>
  <g id="symbol" transform="translate(250.0,150)">
    <rect fill="none" height="50" stroke="none" width="100" x="-50.0" y="-25.0"/>
    <circle cx="0" cy="0" fill="blue" r="4" stroke="blue" stroke-width="1"/>
  </g>
  <g id="text">
    <text fill="black" font-family="sans-serif" font-size="18" text-anchor="start" x="259.0" y="157.2">o</text>
  </g>
  <g id="symbol" transform="translate(250.0,125.0)">
    <rect fill="none" height="50" stroke="none" width="100" x="-50.0" y="-25.0"/>
    <circle cx="0" cy="0" fill="blue" r="4" stroke="blue" stroke-width="1"/>
  </g>
  <g id="text">
    <text fill="black" font-family="sans-serif" font-size="18" text-anchor="start" x="259.0" y="132.2">no</text>
  </g>
  <g id="symbol" transform="translate(400,150)">
    <rect fill="none" height="100" stroke="none" width="100" x="-50.0" y="-50.0"/>
    <polygon fill="white" points="50.0,0 0,-50.0 -50.0,-50.0 -50.0,50.0 0,50.0" stroke="black" stroke-linecap="round" stroke-width="1"/>
    <line stroke="black" stroke-linecap="round" stroke-width="1" x1="-45.0" x2="-31.0" y1="25.0" y2="25.0"/>
    <line stroke="black" stroke-linecap="round" stroke-width="1" x1="-45.0" x2="-31.0" y1="-25.0" y2="-25.0"/>
    <line stroke="black" stroke-linecap="round" stroke-width="1" x1="-38.0" x2="-38.0" y1="-18.0" y2="-32.0"/>
    <line stroke="black" stroke-linecap="round" stroke-width="1" x1="2.0" x2="16.0" y1="-25.0" y2="-25.0"/>
    <line stroke="black" stroke-linecap="round" stroke-width="1" x1="2.0" x2="16.0" y1="25.0" y2="25.0"/>
    <line stroke="black" stroke-linecap="round" stroke-width="1" x1="9.0" x2="9.0" y1="31.0" y2="18.0"/>
    <line stroke="black" stroke-linecap="round" stroke-width="1" x1="25.0" x2="50.0" y1="25.0" y2="25.0"/>
    <line stroke="black" stroke-linecap="round" stroke-width="1" x1="25.0" x2="50.0" y1="-25.0" y2="-25.0"/>
  </g>
  <g id="text">
    <text fill="black" font-family="sans-serif" font-size="18" text-anchor="middle" x="387.5" y="157.2">Cd</text>
  </g>
  <g id="symbol" transform="translate(350.0,125.0)">
    <rect fill="none" height="50" stroke="none" width="100" x="-50.0" y="-25.0"/>
    <circle cx="0" cy="0" fill="blue" r="4" stroke="blue" stroke-width="1"/>
  </g>
  <g id="text">
    <text fill="black" font-family="sans-serif" font-size="18" text-anchor="end" x="341.0" y="132.2">pi</text>
  </g>
  <g id="symbol" transform="translate(350.0,150)">
    <rect fill="none" height="50" stroke="none" width="100" x="-50.0" y="-25.0"/>
    <circle cx="0" cy="0" fill="blue" r="4" stroke="blue" stroke-width="1"/>
  </g>
  <g id="text">
    <text fill="black" font-family="sans-serif" font-size="18" text-anchor="end" x="341.0" y="157.2">i</text>
  </g>
  <g id="symbol" transform="translate(350.0,175.0)">
    <rect fill="none" height="50" stroke="none" width="100" x="-50.0" y="-25.0"/>
    <circle cx="0" cy="0" fill="blue" r="4" stroke="blue" stroke-width="1"/>
  </g>
  <g id="text">
    <text fill="black" font-family="sans-serif" font-size="18" text-anchor="end" x="341.0" y="182.2">ni</text>
  </g>
  <g id="symbol" transform="translate(450.0,175.0)">
    <rect fill="none" height="50" stroke="none" width="100" x="-50.0" y="-25.0"/>
    <circle cx="0" cy="0" fill="blue" r="4" stroke="blue" stroke-width="1"/>
  </g>
  <g id="text">
    <text fill="black" font-family="sans-serif" font-size="18" text-anchor="start" x="459.0" y="182.2">po</text>
  </g>
  <g id="symbol" transform="translate(450.0,150)">
    <rect fill="none" height="50" stroke="none" width="100" x="-50.0" y="-25.0"/>
    <circle cx="0" cy="0" fill="blue" r="4" stroke="blue" stroke-width="1"/>
  </g>
  <g id="text">
    <text fill="black" font-family="sans-serif" font-size="18" text-anchor="start" x="459.0" y="157.2">o</text>
  </g>
  <g id="symbol" transform="translate(450.0,125.0)">
    <rect fill="none" height="50" stroke="none" width="100" x="-50.0" y="-25.0"/>
    <circle cx="0" cy="0" fill="blue" r="4" stroke="blue" stroke-width="1"/>
  </g>
  <g id="text">
    <text fill="black" font-family="sans-serif" font-size="18" text-anchor="start" x="459.0" y="132.2">no</text>
  </g>
  <g id="symbol" transform="translate(600,150)">
    <rect fill="none" height="100" stroke="none" width="100" x="-50.0" y="-50.0"/>
    <polygon fill="white" points="50.0,0 0,-50.0 -50.0,-50.0 -50.0,50.0 0,50.0" stroke="black" stroke-linecap="round" stroke-width="1"/>
    <line stroke="black" stroke-linecap="round" stroke-width="1" x1="-45.0" x2="-31.0" y1="25.0" y2="25.0"/>
    <line stroke="black" stroke-linecap="round" stroke-width="1" x1="-45.0" x2="-31.0" y1="-25.0" y2="-25.0"/>
    <line stroke="black" stroke-linecap="round" stroke-width="1" x1="-38.0" x2="-38.0" y1="-18.0" y2="-32.0"/>
    <polyline fill="none" points="-42.5,12.5 -37.5,12.5 -37.5,-12.5 -32.5,-12.5" stroke="black" stroke-linecap="round" stroke-width="1"/>
  </g>
  <g id="text">
    <text fill="black" font-family="sans-serif" font-size="18" text-anchor="middle" x="597.5" y="157.2">Cc</text>
  </g>
  <g id="symbol" transform="translate(550.0,125.0)">
    <rect fill="none" height="50" stroke="none" width="100" x="-50.0" y="-25.0"/>
    <circle cx="0" cy="0" fill="blue" r="4" stroke="blue" stroke-width="1"/>
  </g>
  <g id="text">
    <text fill="black" font-family="sans-serif" font-size="18" text-anchor="end" x="541.0" y="132.2">pi</text>
  </g>
  <g id="symbol" transform="translate(550.0,150)">
    <rect fill="none" height="50" stroke="none" width="100" x="-50.0" y="-25.0"/>
    <circle cx="0" cy="0" fill="blue" r="4" stroke="blue" stroke-width="1"/>
  </g>
  <g id="text">
    <text fill="black" font-family="sans-serif" font-size="18" text-anchor="end" x="541.0" y="157.2">i</text>
  </g>
  <g id="symbol" transform="translate(550.0,175.0)">
    <rect fill="none" height="50" stroke="none" width="100" x="-50.0" y="-25.0"/>
    <circle cx="0" cy="0" fill="blue" r="4" stroke="blue" stroke-width="1"/>
  </g>
  <g id="text">
    <text fill="black" font-family="sans-serif" font-size="18" text-anchor="end" x="541.0" y="182.2">ni</text>
  </g>
  <g id="symbol" transform="translate(650.0,175.0)">
    <rect fill="none" height="50" stroke="none" width="100" x="-50.0" y="-25.0"/>
    <circle cx="0" cy="0" fill="blue" r="4" stroke="blue" stroke-width="1"/>
  </g>
  <g id="text">
    <text fill="black" font-family="sans-serif" font-size="18" text-anchor="start" x="659.0" y="182.2">po</text>
  </g>
  <g id="symbol" transform="translate(650.0,150)">
    <rect fill="none" height="50" stroke="none" width="100" x="-50.0" y="-25.0"/>
    <circle cx="0" cy="0" fill="blue" r="4" stroke="blue" stroke-width="1"/>
  </g>
  <g id="text">
    <text fill="black" font-family="sans-serif" font-size="18" text-anchor="start" x="659.0" y="157.2">o</text>
  </g>
  <g id="symbol" transform="translate(650.0,125.0)">
    <rect fill="none" height="50" stroke="none" width="100" x="-50.0" y="-25.0"/>
    <circle cx="0" cy="0" fill="blue" r="4" stroke="blue" stroke-width="1"/>
  </g>
  <g id="text">
    <text fill="black" font-family="sans-serif" font-size="18" text-anchor="start" x="659.0" y="132.2">no</text>
  </g>
</svg>
