<?xml version="1.0" encoding="utf-8" ?>
<svg xmlns="http://www.w3.org/2000/svg" xmlns:ev="http://www.w3.org/2001/xml-events" xmlns:xlink="http://www.w3.org/1999/xlink" baseProfile="full" height="100%" version="1.1" viewBox="-77.0,-49.5,1181.0,531.0" width="100%">
  <defs/>
  <g id="symbol" transform="translate(0,0)">
    <rect fill="none" height="50" stroke="none" width="150" x="-75.0" y="-25.0"/>
    <circle cx="-4" cy="0" fill="none" r="4" stroke="black" stroke-width="2"/>
  </g>
  <g id="text">
    <text fill="black" font-family="sans-serif" font-size="18" text-anchor="end" x="-13" y="7.2">pvdd</text>
  </g>
  <g id="symbol" transform="translate(0,50)">
    <rect fill="none" height="50" stroke="none" width="150" x="-75.0" y="-25.0"/>
    <circle cx="-4" cy="0" fill="none" r="4" stroke="black" stroke-width="2"/>
  </g>
  <g id="text">
    <text fill="black" font-family="sans-serif" font-size="18" text-anchor="end" x="-13" y="57.2">avdd</text>
  </g>
  <g id="wire">
    <polyline fill="none" points="0,50 50,50" stroke="black" stroke-linecap="round" stroke-width="2"/>
  </g>
  <g id="symbol" transform="translate(0,140)">
    <rect fill="none" height="50" stroke="none" width="150" x="-75.0" y="-25.0"/>
    <circle cx="-4" cy="0" fill="none" r="4" stroke="black" stroke-width="2"/>
  </g>
  <g id="text">
    <text fill="black" font-family="sans-serif" font-size="18" text-anchor="end" x="-13" y="147.2">lvl</text>
  </g>
  <g id="symbol" transform="translate(125.0,140)">
    <rect fill="none" height="100" stroke="none" width="100" x="-50.0" y="-50.0"/>
    <polygon fill="none" points="50.0,0 0,-50.0 -50.0,-50.0 -50.0,50.0 0,50.0" stroke="black" stroke-linecap="round" stroke-width="2"/>
  </g>
  <g id="text">
    <text fill="black" font-family="sans-serif" font-size="18" text-anchor="middle" x="112.5" y="147.2">ref</text>
  </g>
  <g id="wire">
    <polyline fill="none" points="0,140 75.0,140" stroke="black" stroke-linecap="round" stroke-width="2"/>
  </g>
  <g id="symbol" transform="translate(37.5,140.0)">
    <rect fill="none" height="50" stroke="none" width="50" x="-25.0" y="-25.0"/>
    <line stroke="black" stroke-width="2" x1="-6.0" x2="6.0" y1="6.0" y2="-6.0"/>
  </g>
  <g id="text">
    <text fill="black" font-family="sans-serif" font-size="18" text-anchor="start" x="42.5" y="165.4">6</text>
  </g>
  <g id="symbol" transform="translate(275.0,165.0)">
    <rect fill="none" height="100" stroke="none" width="100" x="-50.0" y="-50.0"/>
    <polygon fill="none" points="50.0,0 -50.0,-50.0 -50.0,50.0" stroke="black" stroke-linecap="round" stroke-width="2"/>
    <line stroke="black" stroke-linecap="round" stroke-width="2" x1="-45.0" x2="-31.0" y1="25.0" y2="25.0"/>
    <line stroke="black" stroke-linecap="round" stroke-width="2" x1="-45.0" x2="-31.0" y1="-25.0" y2="-25.0"/>
    <line stroke="black" stroke-linecap="round" stroke-width="2" x1="-38.0" x2="-38.0" y1="-18.0" y2="-32.0"/>
  </g>
  <g id="text">
    <text fill="black" font-family="sans-serif" font-size="18" text-anchor="middle" x="262.5" y="172.2">amp</text>
  </g>
  <g id="wire">
    <polyline fill="none" points="175.0,140 225.0,140.0" stroke="black" stroke-linecap="round" stroke-width="2"/>
  </g>
  <g id="symbol" transform="translate(312.5,240.0) rotate(-90)">
    <rect fill="none" height="100" stroke="none" width="100" x="-50.0" y="-50.0"/>
    <rect fill="none" height="92" stroke="none" width="8" x="-4" y="-46.0"/>
    <line fill="none" stroke="black" stroke-linecap="round" stroke-width="2" x1="0" x2="0" y1="-50.0" y2="-7.5"/>
    <line fill="none" stroke="black" stroke-linecap="round" stroke-width="2" x1="0" x2="0" y1="2.5" y2="50.0"/>
    <line fill="none" stroke="black" stroke-linecap="round" stroke-width="2" x1="-20.0" x2="20.0" y1="-7.5" y2="-7.5"/>
    <path d="M -20.0 7.5 c 10.0 -7.5 30.0 -7.5 40 0" fill="none" stroke="black" stroke-linecap="round" stroke-width="2"/>
  </g>
  <g id="text"/>
  <g id="symbol" transform="translate(225.0,240.0)">
    <rect fill="none" height="100" stroke="none" width="100" x="-50.0" y="-50.0"/>
    <rect fill="none" height="8" stroke="none" width="92" x="-46.0" y="-4"/>
    <polyline fill="none" points="-50.0,0 -30,0 -25,-10 -20,0 -20,0 -15,10 -10,0 -10,0 -5,-10 0,0 0,0 5,10 10,0 10,0 15,-10 20,0 20,0 25,10 30,0 50.0,0" stroke="black" stroke-linecap="round" stroke-width="2"/>
  </g>
  <g id="text"/>
  <g id="symbol" transform="translate(268.75,290.0) rotate(-90)">
    <rect fill="none" height="100" stroke="none" width="100" x="-50.0" y="-50.0"/>
    <rect fill="none" height="92" stroke="none" width="8" x="-4" y="-46.0"/>
    <line fill="none" stroke="black" stroke-linecap="round" stroke-width="2" x1="0" x2="0" y1="-50.0" y2="-7.5"/>
    <line fill="none" stroke="black" stroke-linecap="round" stroke-width="2" x1="0" x2="0" y1="2.5" y2="50.0"/>
    <line fill="none" stroke="black" stroke-linecap="round" stroke-width="2" x1="-20.0" x2="20.0" y1="-7.5" y2="-7.5"/>
    <path d="M -20.0 7.5 c 10.0 -7.5 30.0 -7.5 40 0" fill="none" stroke="black" stroke-linecap="round" stroke-width="2"/>
  </g>
  <g id="text"/>
  <g id="wire">
    <polyline fill="none" points="362.5,240.0 362.5,165.0" stroke="black" stroke-linecap="round" stroke-width="2"/>
  </g>
  <g id="wire">
    <polyline fill="none" points="175.0,240.0 175.0,190.0 225.0,190.0" stroke="black" stroke-linecap="round" stroke-width="2"/>
  </g>
  <g id="wire">
    <polyline fill="none" points="218.75,290.0 175.0,290.0 175.0,240.0" stroke="black" stroke-linecap="round" stroke-width="2"/>
  </g>
  <g id="wire">
    <polyline fill="none" points="318.75,290.0 362.5,290.0 362.5,240.0" stroke="black" stroke-linecap="round" stroke-width="2"/>
  </g>
  <g id="symbol" transform="translate(500.0,190.0)">
    <rect fill="none" height="100" stroke="none" width="100" x="-50.0" y="-50.0"/>
    <polygon fill="none" points="50.0,0 -50.0,-50.0 -50.0,50.0" stroke="black" stroke-linecap="round" stroke-width="2"/>
    <line stroke="black" stroke-linecap="round" stroke-width="2" x1="-45.0" x2="-31.0" y1="25.0" y2="25.0"/>
    <line stroke="black" stroke-linecap="round" stroke-width="2" x1="-45.0" x2="-31.0" y1="-25.0" y2="-25.0"/>
    <line stroke="black" stroke-linecap="round" stroke-width="2" x1="-38.0" x2="-38.0" y1="-18.0" y2="-32.0"/>
    <polyline fill="none" points="-42.5,12.5 -37.5,12.5 -37.5,-12.5 -32.5,-12.5" stroke="black" stroke-linecap="round" stroke-width="2"/>
  </g>
  <g id="text">
    <text fill="black" font-family="sans-serif" font-size="18" text-anchor="middle" x="497.5" y="197.2">cmp</text>
  </g>
  <g id="wire">
    <polyline fill="none" points="325.0,165.0 450.0,165.0" stroke="black" stroke-linecap="round" stroke-width="2"/>
  </g>
  <g id="symbol" transform="translate(650.0,190.0)">
    <rect fill="none" height="75.0" stroke="none" width="100" x="-50.0" y="-37.5"/>
    <rect fill="none" height="75.0" stroke="black" stroke-width="2" width="100" x="-50.0" y="-37.5"/>
  </g>
  <g id="text">
    <text fill="black" font-family="sans-serif" font-size="18" text-anchor="middle" x="650.0" y="185.0">gate</text>
    <text fill="black" font-family="sans-serif" font-size="18" text-anchor="middle" x="650.0" y="209.4">drivers</text>
  </g>
  <g id="wire">
    <polyline fill="none" points="550.0,190.0 600.0,190.0" stroke="black" stroke-linecap="round" stroke-width="2"/>
  </g>
  <g id="symbol" transform="translate(650.0,52.5) rotate(-90)">
    <rect fill="none" height="100" stroke="none" width="100" x="-50.0" y="-50.0"/>
    <rect fill="none" height="92" stroke="none" width="8" x="46.0" y="-46.0"/>
    <polyline fill="none" points="50.0,-50.0 50.0,-25.0 0,-25.0 0,25.0 50.0,25.0 50.0,50.0" stroke="black" stroke-linecap="round" stroke-width="2"/>
    <line fill="none" stroke="black" stroke-linecap="square" stroke-width="4" x1="0" x2="0" y1="-37.5" y2="37.5"/>
    <line fill="none" stroke="black" stroke-linecap="square" stroke-width="2" x1="-12.5" x2="-12.5" y1="-25.0" y2="25.0"/>
    <line fill="none" stroke="black" stroke-linecap="round" stroke-width="2" x1="-50.0" x2="-12.5" y1="0" y2="0"/>
    <polygon fill="black" points="40.0,-31.0 10.0,-25.0 40.0,-19.0" stroke="none"/>
  </g>
  <g id="text"/>
  <g id="wire">
    <polyline fill="none" points="650.0,102.5 650.0,152.5" stroke="black" stroke-linecap="round" stroke-width="2"/>
  </g>
  <g id="wire">
    <polyline fill="none" points="600.0,2.5 0,0" stroke="black" stroke-linecap="round" stroke-width="2"/>
  </g>
  <g id="symbol" transform="translate(775.0,190.0)">
    <rect fill="none" height="100" stroke="none" width="100" x="-50.0" y="-50.0"/>
    <rect fill="none" height="92" stroke="none" width="8" x="46.0" y="-46.0"/>
    <polyline fill="none" points="50.0,-50.0 50.0,-25.0 0,-25.0 0,25.0 50.0,25.0 50.0,50.0" stroke="black" stroke-linecap="round" stroke-width="2"/>
    <line fill="none" stroke="black" stroke-linecap="square" stroke-width="4" x1="0" x2="0" y1="-37.5" y2="37.5"/>
    <line fill="none" stroke="black" stroke-linecap="square" stroke-width="2" x1="-12.5" x2="-12.5" y1="-25.0" y2="25.0"/>
    <line fill="none" stroke="black" stroke-linecap="round" stroke-width="2" x1="-50.0" x2="-12.5" y1="0" y2="0"/>
    <polygon fill="black" points="10.0,19.0 40.0,25.0 10.0,31.0" stroke="none"/>
  </g>
  <g id="text"/>
  <g id="wire">
    <polyline fill="none" points="725.0,190.0 700.0,190.0" stroke="black" stroke-linecap="round" stroke-width="2"/>
  </g>
  <g id="wire">
    <polyline fill="none" points="825.0,140.0 825.0,2.5 700.0,2.5" stroke="black" stroke-linecap="round" stroke-width="2"/>
  </g>
  <g id="symbol" transform="translate(825.0,240.0)">
    <rect fill="none" height="50" stroke="none" width="50" x="-25.0" y="-25.0"/>
    <polyline fill="none" points="0,0 20.0,0 0,20.0 -20.0,0 0,0" stroke="black" stroke-linecap="round" stroke-width="2"/>
  </g>
  <g id="text"/>
  <g id="symbol" transform="translate(875.0,2.5)">
    <rect fill="none" height="100" stroke="none" width="100" x="-50.0" y="-50.0"/>
    <rect fill="none" height="8" stroke="none" width="92" x="-46.0" y="-4"/>
    <path d="M -50.0 0 L -30.0 0 C -30.0 -15 -10.0 -15 -10.0 0 -10.0 10 -15.0 10 -15.0 0 -15.0 -15 5.0 -15 5.0 0 5.0 10 0.0 10 0.0 0 0.0 -15 20.0 -15 20.0 0 20.0 10 15.0 10 15.0 0 15.0 -15 35.0 -15 35.0 0 L 50.0 0" fill="none" stroke="black" stroke-linecap="round" stroke-width="2"/>
  </g>
  <g id="text"/>
  <g id="wire">
    <polyline fill="none" points="700.0,2.5 825.0,2.5" stroke="black" stroke-linecap="round" stroke-width="2"/>
  </g>
  <g id="symbol" transform="translate(925.0,52.5)">
    <rect fill="none" height="100" stroke="none" width="100" x="-50.0" y="-50.0"/>
    <rect fill="none" height="92" stroke="none" width="8" x="-4" y="-46.0"/>
    <line fill="none" stroke="black" stroke-linecap="round" stroke-width="2" x1="0" x2="0" y1="-50.0" y2="-7.5"/>
    <line fill="none" stroke="black" stroke-linecap="round" stroke-width="2" x1="0" x2="0" y1="2.5" y2="50.0"/>
    <line fill="none" stroke="black" stroke-linecap="round" stroke-width="2" x1="-20.0" x2="20.0" y1="-7.5" y2="-7.5"/>
    <path d="M -20.0 7.5 c 10.0 -7.5 30.0 -7.5 40 0" fill="none" stroke="black" stroke-linecap="round" stroke-width="2"/>
  </g>
  <g id="text"/>
  <g id="symbol" transform="translate(925.0,102.5)">
    <rect fill="none" height="50" stroke="none" width="50" x="-25.0" y="-25.0"/>
    <polyline fill="none" points="0,0 20.0,0 0,20.0 -20.0,0 0,0" stroke="black" stroke-linecap="round" stroke-width="2"/>
  </g>
  <g id="text"/>
  <g id="symbol" transform="translate(1025.0,2.5)">
    <rect fill="none" height="50" stroke="none" width="150" x="-75.0" y="-25.0"/>
    <circle cx="4" cy="0" fill="none" r="4" stroke="black" stroke-width="2"/>
  </g>
  <g id="text">
    <text fill="black" font-family="sans-serif" font-size="18" text-anchor="start" x="1038.0" y="9.7">out</text>
  </g>
  <g id="wire">
    <polyline fill="none" points="925.0,2.5 1025.0,2.5" stroke="black" stroke-linecap="round" stroke-width="2"/>
  </g>
  <g id="symbol" transform="translate(975.0,290.0) rotate(-90)">
    <rect fill="none" height="100" stroke="none" width="100" x="-50.0" y="-50.0"/>
    <rect fill="none" height="8" stroke="none" width="92" x="-46.0" y="-4"/>
    <polyline fill="none" points="-50.0,0 -30,0 -25,-10 -20,0 -20,0 -15,10 -10,0 -10,0 -5,-10 0,0 0,0 5,10 10,0 10,0 15,-10 20,0 20,0 25,10 30,0 50.0,0" stroke="black" stroke-linecap="round" stroke-width="2"/>
  </g>
  <g id="text"/>
  <g id="symbol" transform="translate(975.0,390.0) rotate(-90)">
    <rect fill="none" height="100" stroke="none" width="100" x="-50.0" y="-50.0"/>
    <rect fill="none" height="8" stroke="none" width="92" x="-46.0" y="-4"/>
    <polyline fill="none" points="-50.0,0 -30,0 -25,-10 -20,0 -20,0 -15,10 -10,0 -10,0 -5,-10 0,0 0,0 5,10 10,0 10,0 15,-10 20,0 20,0 25,10 30,0 50.0,0" stroke="black" stroke-linecap="round" stroke-width="2"/>
  </g>
  <g id="text"/>
  <g id="wire">
    <polyline fill="none" points="975.0,240.0 975.0,2.5" stroke="black" stroke-linecap="round" stroke-width="2"/>
  </g>
  <g id="symbol" transform="translate(975.0,440.0)">
    <rect fill="none" height="50" stroke="none" width="50" x="-25.0" y="-25.0"/>
    <polyline fill="none" points="0,0 20.0,0 0,20.0 -20.0,0 0,0" stroke="black" stroke-linecap="round" stroke-width="2"/>
  </g>
  <g id="text"/>
  <g id="symbol" transform="translate(312.5,415.0)">
    <rect fill="none" height="75.0" stroke="none" width="100" x="-50.0" y="-37.5"/>
    <rect fill="none" height="75.0" stroke="black" stroke-width="2" width="100" x="-50.0" y="-37.5"/>
  </g>
  <g id="text"/>
  <g id="wire">
    <polyline fill="none" points="362.5,415.0 406.25,415.0 406.25,215.0 450.0,215.0" stroke="black" stroke-linecap="round" stroke-width="2"/>
  </g>
  <g id="symbol" transform="translate(406.25,340.0)">
    <rect fill="none" height="50" stroke="none" width="50" x="-25.0" y="-25.0"/>
    <circle cx="0" cy="0" fill="white" r="4" stroke="white" stroke-width="2"/>
  </g>
  <g id="text"/>
  <g id="wire">
    <polyline fill="none" points="282.5,415.0 287.5,440.0 337.5,390.0 342.5,415.0" stroke="black" stroke-linecap="round" stroke-width="2"/>
  </g>
  <g id="symbol" transform="translate(312.5,452.5)">
    <rect fill="none" height="50" stroke="none" width="50" x="-25.0" y="-25.0"/>
  </g>
  <g id="text">
    <text fill="black" font-family="sans-serif" font-size="18" text-anchor="middle" x="312.5" y="471.9">ramp_gen</text>
  </g>
  <g id="wire">
    <polyline fill="none" points="175.0,240.0 175.0,340.0 975.0,340.0" stroke="black" stroke-linecap="round" stroke-width="2"/>
  </g>
  <g id="symbol" transform="translate(0,390)">
    <rect fill="none" height="50" stroke="none" width="150" x="-75.0" y="-25.0"/>
    <circle cx="-4" cy="0" fill="none" r="4" stroke="black" stroke-width="2"/>
  </g>
  <g id="text">
    <text fill="black" font-family="sans-serif" font-size="18" text-anchor="end" x="-13" y="397.2">en</text>
  </g>
  <g id="wire">
    <polyline fill="none" points="0,390 50,390" stroke="black" stroke-linecap="round" stroke-width="2"/>
  </g>
  <g id="symbol" transform="translate(0,440)">
    <rect fill="none" height="50" stroke="none" width="150" x="-75.0" y="-25.0"/>
    <circle cx="-4" cy="0" fill="none" r="4" stroke="black" stroke-width="2"/>
  </g>
  <g id="text">
    <text fill="black" font-family="sans-serif" font-size="18" text-anchor="end" x="-13" y="447.2">avss</text>
  </g>
  <g id="wire">
    <polyline fill="none" points="0,440 50,440" stroke="black" stroke-linecap="round" stroke-width="2"/>
  </g>
</svg>
