<?xml version="1.0" encoding="utf-8" ?>
<svg baseProfile="full" height="100%" version="1.1" viewBox="-52.0,-52.0,931.0,281.0" width="100%" xmlns="http://www.w3.org/2000/svg" xmlns:ev="http://www.w3.org/2001/xml-events" xmlns:xlink="http://www.w3.org/1999/xlink">
  <defs/>
  <g id="symbol" transform="translate(0,0)">
    <rect fill="none" height="50" stroke="none" width="100" x="-50.0" y="-25.0"/>
    <circle cx="-4" cy="0" fill="none" r="4" stroke="black" stroke-width="2"/>
  </g>
  <g id="text">
    <text fill="black" font-family="sans-serif" font-size="18" text-anchor="end" x="-13" y="7.2">$V_{\rm in}$</text>
  </g>
  <g id="symbol" transform="translate(0,150)">
    <rect fill="none" height="50" stroke="none" width="100" x="-50.0" y="-25.0"/>
    <circle cx="-4" cy="0" fill="none" r="4" stroke="black" stroke-width="2"/>
  </g>
  <g id="text">
    <text fill="black" font-family="sans-serif" font-size="18" text-anchor="end" x="-13" y="157.2">$\phi_1$</text>
  </g>
  <g id="symbol" transform="translate(0,200)">
    <rect fill="none" height="50" stroke="none" width="100" x="-50.0" y="-25.0"/>
    <circle cx="-4" cy="0" fill="none" r="4" stroke="black" stroke-width="2"/>
  </g>
  <g id="text">
    <text fill="black" font-family="sans-serif" font-size="18" text-anchor="end" x="-13" y="207.2">$\phi_2$</text>
  </g>
  <g id="symbol" transform="translate(75,0) rotate(-90)">
    <rect fill="none" height="100" stroke="none" width="100" x="-50.0" y="-50.0"/>
    <rect fill="none" height="92" stroke="none" width="8" x="-4" y="-46.0"/>
    <line fill="none" stroke="black" stroke-linecap="round" stroke-width="2" x1="0" x2="0" y1="-50.0" y2="-17.5"/>
    <line fill="none" stroke="black" stroke-linecap="round" stroke-width="2" x1="0" x2="0" y1="17.5" y2="50.0"/>
    <line fill="none" stroke="black" stroke-linecap="round" stroke-width="2" x1="-20.0" x2="20.0" y1="17.5" y2="17.5"/>
    <polygon fill="none" points="0,17.5 -20.0,-17.5 20.0,-17.5" stroke="black" stroke-linecap="round" stroke-width="2"/>
  </g>
  <g id="text"/>
  <g id="symbol" transform="translate(150,75)">
    <rect fill="none" height="100" stroke="none" width="100" x="-50.0" y="-50.0"/>
    <rect fill="none" height="92" stroke="none" width="8" x="-4" y="-46.0"/>
    <line fill="none" stroke="black" stroke-linecap="round" stroke-width="2" x1="0" x2="0" y1="-50.0" y2="-7.5"/>
    <line fill="none" stroke="black" stroke-linecap="round" stroke-width="2" x1="0" x2="0" y1="2.5" y2="50.0"/>
    <line fill="none" stroke="black" stroke-linecap="round" stroke-width="2" x1="-20.0" x2="20.0" y1="-7.5" y2="-7.5"/>
    <path d="M -20.0 7.5 c 10.0 -7.5 30.0 -7.5 40 0" fill="none" stroke="black" stroke-linecap="round" stroke-width="2"/>
  </g>
  <g id="text"/>
  <g id="symbol" transform="translate(225,0) rotate(-90)">
    <rect fill="none" height="100" stroke="none" width="100" x="-50.0" y="-50.0"/>
    <rect fill="none" height="92" stroke="none" width="8" x="-4" y="-46.0"/>
    <line fill="none" stroke="black" stroke-linecap="round" stroke-width="2" x1="0" x2="0" y1="-50.0" y2="-17.5"/>
    <line fill="none" stroke="black" stroke-linecap="round" stroke-width="2" x1="0" x2="0" y1="17.5" y2="50.0"/>
    <line fill="none" stroke="black" stroke-linecap="round" stroke-width="2" x1="-20.0" x2="20.0" y1="17.5" y2="17.5"/>
    <polygon fill="none" points="0,17.5 -20.0,-17.5 20.0,-17.5" stroke="black" stroke-linecap="round" stroke-width="2"/>
  </g>
  <g id="text"/>
  <g id="symbol" transform="translate(300,75)">
    <rect fill="none" height="100" stroke="none" width="100" x="-50.0" y="-50.0"/>
    <rect fill="none" height="92" stroke="none" width="8" x="-4" y="-46.0"/>
    <line fill="none" stroke="black" stroke-linecap="round" stroke-width="2" x1="0" x2="0" y1="-50.0" y2="-7.5"/>
    <line fill="none" stroke="black" stroke-linecap="round" stroke-width="2" x1="0" x2="0" y1="2.5" y2="50.0"/>
    <line fill="none" stroke="black" stroke-linecap="round" stroke-width="2" x1="-20.0" x2="20.0" y1="-7.5" y2="-7.5"/>
    <path d="M -20.0 7.5 c 10.0 -7.5 30.0 -7.5 40 0" fill="none" stroke="black" stroke-linecap="round" stroke-width="2"/>
  </g>
  <g id="text"/>
  <g id="symbol" transform="translate(375,0) rotate(-90)">
    <rect fill="none" height="100" stroke="none" width="100" x="-50.0" y="-50.0"/>
    <rect fill="none" height="92" stroke="none" width="8" x="-4" y="-46.0"/>
    <line fill="none" stroke="black" stroke-linecap="round" stroke-width="2" x1="0" x2="0" y1="-50.0" y2="-17.5"/>
    <line fill="none" stroke="black" stroke-linecap="round" stroke-width="2" x1="0" x2="0" y1="17.5" y2="50.0"/>
    <line fill="none" stroke="black" stroke-linecap="round" stroke-width="2" x1="-20.0" x2="20.0" y1="17.5" y2="17.5"/>
    <polygon fill="none" points="0,17.5 -20.0,-17.5 20.0,-17.5" stroke="black" stroke-linecap="round" stroke-width="2"/>
  </g>
  <g id="text"/>
  <g id="symbol" transform="translate(450,75)">
    <rect fill="none" height="100" stroke="none" width="100" x="-50.0" y="-50.0"/>
    <rect fill="none" height="92" stroke="none" width="8" x="-4" y="-46.0"/>
    <line fill="none" stroke="black" stroke-linecap="round" stroke-width="2" x1="0" x2="0" y1="-50.0" y2="-7.5"/>
    <line fill="none" stroke="black" stroke-linecap="round" stroke-width="2" x1="0" x2="0" y1="2.5" y2="50.0"/>
    <line fill="none" stroke="black" stroke-linecap="round" stroke-width="2" x1="-20.0" x2="20.0" y1="-7.5" y2="-7.5"/>
    <path d="M -20.0 7.5 c 10.0 -7.5 30.0 -7.5 40 0" fill="none" stroke="black" stroke-linecap="round" stroke-width="2"/>
  </g>
  <g id="text"/>
  <g id="symbol" transform="translate(525,0) rotate(-90)">
    <rect fill="none" height="100" stroke="none" width="100" x="-50.0" y="-50.0"/>
    <rect fill="none" height="92" stroke="none" width="8" x="-4" y="-46.0"/>
    <line fill="none" stroke="black" stroke-linecap="round" stroke-width="2" x1="0" x2="0" y1="-50.0" y2="-17.5"/>
    <line fill="none" stroke="black" stroke-linecap="round" stroke-width="2" x1="0" x2="0" y1="17.5" y2="50.0"/>
    <line fill="none" stroke="black" stroke-linecap="round" stroke-width="2" x1="-20.0" x2="20.0" y1="17.5" y2="17.5"/>
    <polygon fill="none" points="0,17.5 -20.0,-17.5 20.0,-17.5" stroke="black" stroke-linecap="round" stroke-width="2"/>
  </g>
  <g id="text"/>
  <g id="symbol" transform="translate(600,75)">
    <rect fill="none" height="100" stroke="none" width="100" x="-50.0" y="-50.0"/>
    <rect fill="none" height="92" stroke="none" width="8" x="-4" y="-46.0"/>
    <line fill="none" stroke="black" stroke-linecap="round" stroke-width="2" x1="0" x2="0" y1="-50.0" y2="-7.5"/>
    <line fill="none" stroke="black" stroke-linecap="round" stroke-width="2" x1="0" x2="0" y1="2.5" y2="50.0"/>
    <line fill="none" stroke="black" stroke-linecap="round" stroke-width="2" x1="-20.0" x2="20.0" y1="-7.5" y2="-7.5"/>
    <path d="M -20.0 7.5 c 10.0 -7.5 30.0 -7.5 40 0" fill="none" stroke="black" stroke-linecap="round" stroke-width="2"/>
  </g>
  <g id="text"/>
  <g id="symbol" transform="translate(675,0) rotate(-90)">
    <rect fill="none" height="100" stroke="none" width="100" x="-50.0" y="-50.0"/>
    <rect fill="none" height="92" stroke="none" width="8" x="-4" y="-46.0"/>
    <line fill="none" stroke="black" stroke-linecap="round" stroke-width="2" x1="0" x2="0" y1="-50.0" y2="-17.5"/>
    <line fill="none" stroke="black" stroke-linecap="round" stroke-width="2" x1="0" x2="0" y1="17.5" y2="50.0"/>
    <line fill="none" stroke="black" stroke-linecap="round" stroke-width="2" x1="-20.0" x2="20.0" y1="17.5" y2="17.5"/>
    <polygon fill="none" points="0,17.5 -20.0,-17.5 20.0,-17.5" stroke="black" stroke-linecap="round" stroke-width="2"/>
  </g>
  <g id="text"/>
  <g id="symbol" transform="translate(750,75)">
    <rect fill="none" height="100" stroke="none" width="100" x="-50.0" y="-50.0"/>
    <rect fill="none" height="92" stroke="none" width="8" x="-4" y="-46.0"/>
    <line fill="none" stroke="black" stroke-linecap="round" stroke-width="2" x1="0" x2="0" y1="-50.0" y2="-7.5"/>
    <line fill="none" stroke="black" stroke-linecap="round" stroke-width="2" x1="0" x2="0" y1="2.5" y2="50.0"/>
    <line fill="none" stroke="black" stroke-linecap="round" stroke-width="2" x1="-20.0" x2="20.0" y1="-7.5" y2="-7.5"/>
    <path d="M -20.0 7.5 c 10.0 -7.5 30.0 -7.5 40 0" fill="none" stroke="black" stroke-linecap="round" stroke-width="2"/>
  </g>
  <g id="text"/>
  <g id="symbol" transform="translate(825,0)">
    <rect fill="none" height="50" stroke="none" width="100" x="-50.0" y="-25.0"/>
    <circle cx="4" cy="0" fill="none" r="4" stroke="black" stroke-width="2"/>
  </g>
  <g id="text">
    <text fill="black" font-family="sans-serif" font-size="18" text-anchor="start" x="838" y="7.2">$V_{\rm out}$</text>
  </g>
  <g id="symbol" transform="translate(750,125.0)">
    <rect fill="none" height="50" stroke="none" width="50" x="-25.0" y="-25.0"/>
    <polyline fill="none" points="0,0 20.0,0 0,20.0 -20.0,0 0,0" stroke="black" stroke-linecap="round" stroke-width="2"/>
  </g>
  <g id="text"/>
  <g id="wire">
    <polyline fill="none" points="0,0 25.0,0" stroke="black" stroke-linecap="round" stroke-width="2"/>
  </g>
  <g id="wire">
    <polyline fill="none" points="125.0,0 175.0,0" stroke="black" stroke-linecap="round" stroke-width="2"/>
  </g>
  <g id="wire">
    <polyline fill="none" points="275.0,0 325.0,0" stroke="black" stroke-linecap="round" stroke-width="2"/>
  </g>
  <g id="wire">
    <polyline fill="none" points="425.0,0 475.0,0" stroke="black" stroke-linecap="round" stroke-width="2"/>
  </g>
  <g id="wire">
    <polyline fill="none" points="575.0,0 625.0,0" stroke="black" stroke-linecap="round" stroke-width="2"/>
  </g>
  <g id="wire">
    <polyline fill="none" points="725.0,0 825,0" stroke="black" stroke-linecap="round" stroke-width="2"/>
  </g>
  <g id="wire">
    <polyline fill="none" points="150,0 150,25.0" stroke="black" stroke-linecap="round" stroke-width="2"/>
  </g>
  <g id="wire">
    <polyline fill="none" points="300,0 300,25.0" stroke="black" stroke-linecap="round" stroke-width="2"/>
  </g>
  <g id="wire">
    <polyline fill="none" points="450,0 450,25.0" stroke="black" stroke-linecap="round" stroke-width="2"/>
  </g>
  <g id="wire">
    <polyline fill="none" points="600,0 600,25.0" stroke="black" stroke-linecap="round" stroke-width="2"/>
  </g>
  <g id="wire">
    <polyline fill="none" points="750,0 750,25.0" stroke="black" stroke-linecap="round" stroke-width="2"/>
  </g>
  <g id="wire">
    <polyline fill="none" points="150,150 150,125.0" stroke="black" stroke-linecap="round" stroke-width="2"/>
  </g>
  <g id="wire">
    <polyline fill="none" points="300,200 300,125.0" stroke="black" stroke-linecap="round" stroke-width="2"/>
  </g>
  <g id="symbol" transform="translate(300,150)">
    <rect fill="none" height="50" stroke="none" width="50" x="-25.0" y="-25.0"/>
    <circle cx="0" cy="0" fill="white" r="4" stroke="white" stroke-width="2"/>
  </g>
  <g id="text"/>
  <g id="wire">
    <polyline fill="none" points="0,150 450,150 450,125.0" stroke="black" stroke-linecap="round" stroke-width="2"/>
  </g>
  <g id="wire">
    <polyline fill="none" points="0,200 600,200 600,125.0" stroke="black" stroke-linecap="round" stroke-width="2"/>
  </g>
</svg>
