<?xml version="1.0" encoding="utf-8" ?>
<svg xmlns="http://www.w3.org/2000/svg" xmlns:ev="http://www.w3.org/2001/xml-events" xmlns:xlink="http://www.w3.org/1999/xlink" baseProfile="full" height="100%" version="1.1" viewBox="-101.0,-51.0,328.0,178.0" width="100%">
  <defs/>
  <g id="bkgnd">
    <rect fill="white" height="178.0" stroke="none" stroke-width="1" width="328.0" x="-101.0" y="-51.0"/>
  </g>
  <g id="symbol" transform="translate(0,0)">
    <rect fill="none" height="100" stroke="none" width="100" x="-50.0" y="-50.0"/>
    <circle cx="0" cy="0" fill="white" r="25.0" stroke="black" stroke-width="1"/>
    <line stroke="black" stroke-linecap="round" stroke-width="1" x1="-12.5" x2="12.5" y1="0" y2="0"/>
    <line stroke="black" stroke-linecap="round" stroke-width="1" x1="0" x2="0" y1="-12.5" y2="12.5"/>
  </g>
  <g id="text"/>
  <g id="symbol" transform="translate(100.0,0)">
    <rect fill="none" height="100" stroke="none" width="100" x="-50.0" y="-50.0"/>
    <polygon fill="white" points="50.0,0 -50.0,-50.0 -50.0,50.0" stroke="black" stroke-linecap="round" stroke-width="1"/>
  </g>
  <g id="text">
    <text fill="black" font-family="serif" font-size="16" text-anchor="middle" x="87.5" y="6.4">$a$</text>
  </g>
  <g id="symbol" transform="translate(100.0,100) scale(-1,1)">
    <rect fill="none" height="50" stroke="none" width="100" x="-50.0" y="-25.0"/>
    <rect fill="white" height="50" stroke="black" stroke-width="1" width="100" x="-50.0" y="-25.0"/>
  </g>
  <g id="text">
    <text fill="black" font-family="serif" font-size="16" text-anchor="middle" x="100.0" y="106.4">$f$</text>
  </g>
  <g id="symbol" transform="translate(-25.0,0)">
    <rect fill="none" height="50" stroke="none" width="50" x="-25.0" y="-25.0"/>
  </g>
  <g id="text">
    <text fill="black" font-family="serif" font-size="16" text-anchor="end" x="-30.0" y="-5">$+$</text>
  </g>
  <g id="symbol" transform="translate(0,25.0)">
    <rect fill="none" height="50" stroke="none" width="50" x="-25.0" y="-25.0"/>
  </g>
  <g id="text">
    <text fill="black" font-family="serif" font-size="16" text-anchor="end" x="-5" y="42.8">$-$</text>
  </g>
  <g id="symbol" transform="translate(-75.0,0)">
    <rect fill="none" height="50" stroke="none" width="50" x="-25.0" y="-25.0"/>
    <circle cx="-4" cy="0" fill="white" r="4" stroke="black" stroke-width="1"/>
  </g>
  <g id="text">
    <text fill="black" font-family="serif" font-size="16" text-anchor="end" x="-88.0" y="6.4">in</text>
  </g>
  <g id="symbol" transform="translate(200.0,0)">
    <rect fill="none" height="50" stroke="none" width="50" x="-25.0" y="-25.0"/>
    <circle cx="4" cy="0" fill="white" r="4" stroke="black" stroke-width="1"/>
  </g>
  <g id="text">
    <text fill="black" font-family="serif" font-size="16" text-anchor="start" x="213.0" y="6.4">out</text>
  </g>
  <g id="wire">
    <polyline fill="none" points="-75.0,0 -25.0,0" stroke="black" stroke-linecap="round" stroke-width="1"/>
  </g>
  <g id="wire">
    <polyline fill="none" points="25.0,0 50.0,0" stroke="black" stroke-linecap="round" stroke-width="1"/>
  </g>
  <g id="wire">
    <polyline fill="none" points="150.0,0 200.0,0" stroke="black" stroke-linecap="round" stroke-width="1"/>
  </g>
  <g id="wire">
    <polyline fill="none" points="175.0,0 175.0,100 150.0,100" stroke="black" stroke-linecap="round" stroke-width="1"/>
  </g>
  <g id="wire">
    <polyline fill="none" points="0,25.0 0,100 50.0,100" stroke="black" stroke-linecap="round" stroke-width="1"/>
  </g>
</svg>
