<?xml version="1.0" encoding="utf-8" ?>
<svg xmlns="http://www.w3.org/2000/svg" xmlns:ev="http://www.w3.org/2001/xml-events" xmlns:xlink="http://www.w3.org/1999/xlink" baseProfile="full" height="100%" version="1.1" viewBox="-38.5,-51.0,440.5,178.0" width="100%">
  <defs/>
  <g id="bkgnd">
    <rect fill="white" height="178.0" stroke="none" stroke-width="1" width="440.5" x="-38.5" y="-51.0"/>
  </g>
  <g id="symbol" transform="translate(0,0)">
    <rect fill="none" height="50" stroke="none" width="75.0" x="-37.5" y="-25.0"/>
    <circle cx="-4" cy="0" fill="white" r="4" stroke="black" stroke-width="1"/>
  </g>
  <g id="text">
    <text fill="black" font-family="serif" font-size="16" text-anchor="end" x="-13" y="6.4">in</text>
  </g>
  <g id="symbol" transform="translate(350.0,0)">
    <rect fill="none" height="50" stroke="none" width="100" x="-50.0" y="-25.0"/>
    <circle cx="4" cy="0" fill="white" r="4" stroke="black" stroke-width="1"/>
  </g>
  <g id="text">
    <text fill="black" font-family="serif" font-size="16" text-anchor="start" x="363.0" y="6.4">out</text>
  </g>
  <g id="wire">
    <polyline fill="none" points="0.0,0 350.0,0" stroke="black" stroke-linecap="round" stroke-width="1"/>
  </g>
  <g id="symbol" transform="translate(75.0,0)">
    <rect fill="none" height="100" stroke="none" width="100" x="-50.0" y="-50.0"/>
    <rect fill="white" height="4" stroke="none" width="92" x="-46.0" y="-2"/>
    <polyline fill="none" points="-50.0,0 -30,0 -25,-10 -20,0 -20,0 -15,10 -10,0 -10,0 -5,-10 0,0 0,0 5,10 10,0 10,0 15,-10 20,0 20,0 25,10 30,0 50.0,0" stroke="black" stroke-linecap="round" stroke-width="1"/>
  </g>
  <g id="text">
    <text fill="black" font-family="serif" font-size="16" text-anchor="middle" x="75.0" y="-20">Rin</text>
  </g>
  <g id="symbol" transform="translate(150.0,0)">
    <rect fill="none" height="50" stroke="none" width="50" x="-25.0" y="-25.0"/>
    <circle cx="0" cy="0" fill="black" r="4" stroke="black" stroke-width="1"/>
  </g>
  <g id="text"/>
  <g id="symbol" transform="translate(225.0,0)">
    <rect fill="none" height="100" stroke="none" width="100" x="-50.0" y="-50.0"/>
    <rect fill="white" height="4" stroke="none" width="92" x="-46.0" y="-2"/>
    <polyline fill="none" points="-50.0,0 -30,0 -25,-10 -20,0 -20,0 -15,10 -10,0 -10,0 -5,-10 0,0 0,0 5,10 10,0 10,0 15,-10 20,0 20,0 25,10 30,0 50.0,0" stroke="black" stroke-linecap="round" stroke-width="1"/>
  </g>
  <g id="text">
    <text fill="black" font-family="serif" font-size="16" text-anchor="middle" x="225.0" y="-20">Rfb</text>
  </g>
  <g id="symbol" transform="translate(300.0,0)">
    <rect fill="none" height="50" stroke="none" width="50" x="-25.0" y="-25.0"/>
    <circle cx="0" cy="0" fill="black" r="4" stroke="black" stroke-width="1"/>
  </g>
  <g id="text"/>
  <g id="symbol" transform="translate(225.0,75) scale(1,-1)">
    <rect fill="none" height="100" stroke="none" width="100" x="-50.0" y="-50.0"/>
    <polygon fill="white" points="50.0,0 -50.0,-50.0 -50.0,50.0" stroke="black" stroke-linecap="round" stroke-width="1"/>
    <line stroke="black" stroke-linecap="round" stroke-width="1" x1="-45.0" x2="-31.0" y1="25.0" y2="25.0"/>
    <line stroke="black" stroke-linecap="round" stroke-width="1" x1="-45.0" x2="-31.0" y1="-25.0" y2="-25.0"/>
    <line stroke="black" stroke-linecap="round" stroke-width="1" x1="-38.0" x2="-38.0" y1="-18.0" y2="-32.0"/>
  </g>
  <g id="text"/>
  <g id="wire">
    <polyline fill="none" points="300.0,0 300.0,75 275.0,75" stroke="black" stroke-linecap="round" stroke-width="1"/>
  </g>
  <g id="symbol" transform="translate(150.0,100.0) scale(-1,1) rotate(-90)">
    <rect fill="none" height="50" stroke="none" width="50" x="-25.0" y="-25.0"/>
    <polyline fill="white" points="0,0 20.0,0 0,20.0 -20.0,0 0,0" stroke="black" stroke-linecap="round" stroke-width="1"/>
  </g>
  <g id="text"/>
  <g id="wire">
    <polyline fill="none" points="150.0,100.0 175.0,100.0" stroke="black" stroke-linecap="round" stroke-width="1"/>
  </g>
  <g id="wire">
    <polyline fill="none" points="150.0,0 150.0,50.0 175.0,50.0" stroke="black" stroke-linecap="round" stroke-width="1"/>
  </g>
  <g id="symbol" transform="translate(150.0,0)">
    <rect fill="none" height="50" stroke="none" width="50" x="-25.0" y="-25.0"/>
  </g>
  <g id="text">
    <text fill="black" font-family="serif" font-size="16" text-anchor="end" x="145.0" y="17.8">Vg</text>
  </g>
</svg>
