<?xml version="1.0" encoding="utf-8" ?>
<svg xmlns="http://www.w3.org/2000/svg" xmlns:ev="http://www.w3.org/2001/xml-events" xmlns:xlink="http://www.w3.org/1999/xlink" baseProfile="full" height="100%" version="1.1" viewBox="-177.0,-27.0,356.0,443.0" width="100%">
  <defs/>
  <g id="symbol" transform="translate(0,0)">
    <rect fill="none" height="50" stroke="none" width="50" x="-25.0" y="-25.0"/>
  </g>
  <g id="text">
    <text fill="black" font-family="sans-serif" font-size="18" text-anchor="middle" x="0" y="-10">$V_{\rm dd}$</text>
  </g>
  <g id="wire">
    <polyline fill="none" points="0,0 0,25" stroke="black" stroke-linecap="round" stroke-width="2"/>
  </g>
  <g id="symbol" transform="translate(-125,75.0) rotate(-90)">
    <rect fill="none" height="100" stroke="none" width="100" x="-50.0" y="-50.0"/>
    <rect fill="none" height="8" stroke="none" width="92" x="-46.0" y="-4"/>
    <path d="M -50.0 0 L -30.0 0 C -30.0 -15 -10.0 -15 -10.0 0 -10.0 10 -15.0 10 -15.0 0 -15.0 -15 5.0 -15 5.0 0 5.0 10 0.0 10 0.0 0 0.0 -15 20.0 -15 20.0 0 20.0 10 15.0 10 15.0 0 15.0 -15 35.0 -15 35.0 0 L 50.0 0" fill="none" stroke="black" stroke-linecap="round" stroke-width="2"/>
  </g>
  <g id="text">
    <text fill="black" font-family="sans-serif" font-size="18" text-anchor="start" x="-110" y="70.0">$\frac{1}{2} L$</text>
  </g>
  <g id="symbol" transform="translate(125,75.0) scale(-1,1) rotate(-90)">
    <rect fill="none" height="100" stroke="none" width="100" x="-50.0" y="-50.0"/>
    <rect fill="none" height="8" stroke="none" width="92" x="-46.0" y="-4"/>
    <path d="M -50.0 0 L -30.0 0 C -30.0 -15 -10.0 -15 -10.0 0 -10.0 10 -15.0 10 -15.0 0 -15.0 -15 5.0 -15 5.0 0 5.0 10 0.0 10 0.0 0 0.0 -15 20.0 -15 20.0 0 20.0 10 15.0 10 15.0 0 15.0 -15 35.0 -15 35.0 0 L 50.0 0" fill="none" stroke="black" stroke-linecap="round" stroke-width="2"/>
  </g>
  <g id="text">
    <text fill="black" font-family="sans-serif" font-size="18" text-anchor="end" x="110" y="70.0">$\frac{1}{2} L$</text>
  </g>
  <g id="symbol" transform="translate(0.0,125.0) rotate(-90)">
    <rect fill="none" height="100" stroke="none" width="100" x="-50.0" y="-50.0"/>
    <rect fill="none" height="92" stroke="none" width="8" x="-4" y="-46.0"/>
    <line fill="none" stroke="black" stroke-linecap="round" stroke-width="2" x1="0" x2="0" y1="-50.0" y2="-7.5"/>
    <line fill="none" stroke="black" stroke-linecap="round" stroke-width="2" x1="0" x2="0" y1="2.5" y2="50.0"/>
    <line fill="none" stroke="black" stroke-linecap="round" stroke-width="2" x1="-20.0" x2="20.0" y1="-7.5" y2="-7.5"/>
    <path d="M -20.0 7.5 c 10.0 -7.5 30.0 -7.5 40 0" fill="none" stroke="black" stroke-linecap="round" stroke-width="2"/>
  </g>
  <g id="text">
    <text fill="black" font-family="sans-serif" font-size="18" text-anchor="start" x="15.0" y="120.0">$C$</text>
  </g>
  <g id="wire">
    <polyline fill="none" points="-125,25.0 125,25.0" stroke="black" stroke-linecap="round" stroke-width="2"/>
  </g>
  <g id="wire">
    <polyline fill="none" points="-125,125.0 -50.0,125.0" stroke="black" stroke-linecap="round" stroke-width="2"/>
  </g>
  <g id="wire">
    <polyline fill="none" points="125,125.0 50.0,125.0" stroke="black" stroke-linecap="round" stroke-width="2"/>
  </g>
  <g id="symbol" transform="translate(-75.0,250.0) scale(-1,1)">
    <rect fill="none" height="100" stroke="none" width="100" x="-50.0" y="-50.0"/>
    <rect fill="none" height="92" stroke="none" width="8" x="46.0" y="-46.0"/>
    <polyline fill="none" points="50.0,-50.0 50.0,-25.0 0,-25.0 0,25.0 50.0,25.0 50.0,50.0" stroke="black" stroke-linecap="round" stroke-width="2"/>
    <line fill="none" stroke="black" stroke-linecap="square" stroke-width="4" x1="0" x2="0" y1="-37.5" y2="37.5"/>
    <line fill="none" stroke="black" stroke-linecap="square" stroke-width="2" x1="-12.5" x2="-12.5" y1="-25.0" y2="25.0"/>
    <line fill="none" stroke="black" stroke-linecap="round" stroke-width="2" x1="-50.0" x2="-12.5" y1="0" y2="0"/>
    <polygon fill="black" points="10.0,19.0 40.0,25.0 10.0,31.0" stroke="none"/>
  </g>
  <g id="text"/>
  <g id="symbol" transform="translate(75.0,250.0)">
    <rect fill="none" height="100" stroke="none" width="100" x="-50.0" y="-50.0"/>
    <rect fill="none" height="92" stroke="none" width="8" x="46.0" y="-46.0"/>
    <polyline fill="none" points="50.0,-50.0 50.0,-25.0 0,-25.0 0,25.0 50.0,25.0 50.0,50.0" stroke="black" stroke-linecap="round" stroke-width="2"/>
    <line fill="none" stroke="black" stroke-linecap="square" stroke-width="4" x1="0" x2="0" y1="-37.5" y2="37.5"/>
    <line fill="none" stroke="black" stroke-linecap="square" stroke-width="2" x1="-12.5" x2="-12.5" y1="-25.0" y2="25.0"/>
    <line fill="none" stroke="black" stroke-linecap="round" stroke-width="2" x1="-50.0" x2="-12.5" y1="0" y2="0"/>
    <polygon fill="black" points="10.0,19.0 40.0,25.0 10.0,31.0" stroke="none"/>
  </g>
  <g id="text"/>
  <g id="wire">
    <polyline fill="none" points="-125,125.0 -125.0,200.0" stroke="black" stroke-linecap="round" stroke-width="2"/>
  </g>
  <g id="wire">
    <polyline fill="none" points="125,125.0 125.0,200.0" stroke="black" stroke-linecap="round" stroke-width="2"/>
  </g>
  <g id="symbol" transform="translate(0.0,200.0)">
    <rect fill="none" height="50" stroke="none" width="50" x="-25.0" y="-25.0"/>
    <rect fill="none" height="50" stroke="none" stroke-width="4" width="50" x="-25.0" y="-25.0"/>
    <line stroke="black" stroke-width="2" x1="-25.0" x2="25.0" y1="25.0" y2="-25.0"/>
    <circle cx="0" cy="0" fill="white" r="3" stroke="none"/>
    <line stroke="black" stroke-width="2" x1="-25.0" x2="25.0" y1="-25.0" y2="25.0"/>
  </g>
  <g id="text"/>
  <g id="wire">
    <polyline fill="none" points="-25.0,250.0 -25.0,225.0" stroke="black" stroke-linecap="round" stroke-width="2"/>
  </g>
  <g id="wire">
    <polyline fill="none" points="25.0,250.0 25.0,225.0" stroke="black" stroke-linecap="round" stroke-width="2"/>
  </g>
  <g id="wire">
    <polyline fill="none" points="125,125.0 125,175.0 25.0,175.0" stroke="black" stroke-linecap="round" stroke-width="2"/>
  </g>
  <g id="wire">
    <polyline fill="none" points="-125,125.0 -125,175.0 -25.0,175.0" stroke="black" stroke-linecap="round" stroke-width="2"/>
  </g>
  <g id="wire">
    <polyline fill="none" points="-125.0,300.0 -125.0,312.0 125.0,312.0 125.0,300.0" stroke="black" stroke-linecap="round" stroke-width="2"/>
  </g>
  <g id="symbol" transform="translate(0.0,362.0)">
    <rect fill="none" height="100" stroke="none" width="100" x="-50.0" y="-50.0"/>
    <circle cx="0" cy="0" fill="none" r="25.0" stroke="black" stroke-width="2"/>
    <line stroke="black" stroke-linecap="round" stroke-width="2" x1="0" x2="0" y1="-25.0" y2="-50.0"/>
    <line stroke="black" stroke-linecap="round" stroke-width="2" x1="0" x2="0" y1="25.0" y2="50.0"/>
    <polygon fill="black" points="0,-18.75 0,6.25 5,6.25 0,18.75 -5,6.25 0,6.25" stroke="black" stroke-linecap="round" stroke-width="2"/>
  </g>
  <g id="text">
    <text fill="black" font-family="sans-serif" font-size="18" text-anchor="start" x="5.0" y="406.4">$I_{\rm ss}$</text>
  </g>
</svg>
