<?xml version="1.0" encoding="utf-8" ?>
<svg xmlns="http://www.w3.org/2000/svg" xmlns:ev="http://www.w3.org/2001/xml-events" xmlns:xlink="http://www.w3.org/1999/xlink" baseProfile="full" height="100%" version="1.1" viewBox="-27.0,-64.5,756.0,456.0" width="100%">
  <defs/>
  <g id="bkgnd">
    <rect fill="white" height="456.0" stroke="none" stroke-width="1" width="756.0" x="-27.0" y="-64.5"/>
  </g>
  <g id="symbol" transform="translate(0,0)">
    <rect fill="none" height="50" stroke="none" width="50" x="-25.0" y="-25.0"/>
    <circle cx="-4" cy="0" fill="white" r="4" stroke="black" stroke-width="2"/>
  </g>
  <g id="text">
    <text fill="black" font-family="sans-serif" font-size="18" text-anchor="end" x="-13" y="7.2">in</text>
  </g>
  <g id="symbol" transform="translate(287.5,50.0)">
    <rect fill="none" height="225.0" stroke="none" width="525.0" x="-262.5" y="-112.5"/>
    <rect fill="lightgray" height="225.0" stroke="black" stroke-width="2" width="525.0" x="-262.5" y="-112.5"/>
  </g>
  <g id="text"/>
  <g id="symbol" transform="translate(550.0,162.5)">
    <rect fill="none" height="50" stroke="none" width="50" x="-25.0" y="-25.0"/>
  </g>
  <g id="text">
    <text fill="black" font-family="sans-serif" font-size="18" text-anchor="end" x="545.0" y="157.5">Stage 1</text>
  </g>
  <g id="symbol" transform="translate(125.0,100.0)">
    <rect fill="none" height="75.0" stroke="none" width="100" x="-50.0" y="-37.5"/>
    <rect fill="white" height="75.0" stroke="black" stroke-width="2" width="100" x="-50.0" y="-37.5"/>
  </g>
  <g id="text">
    <text fill="black" font-family="sans-serif" font-size="18" text-anchor="middle" x="125.0" y="95.0">2 bit</text>
    <text fill="black" font-family="sans-serif" font-size="18" text-anchor="middle" x="125.0" y="119.4">Flash</text>
  </g>
  <g id="symbol" transform="translate(275.0,100.0)">
    <rect fill="none" height="75.0" stroke="none" width="100" x="-50.0" y="-37.5"/>
    <rect fill="white" height="75.0" stroke="black" stroke-width="2" width="100" x="-50.0" y="-37.5"/>
  </g>
  <g id="text">
    <text fill="black" font-family="sans-serif" font-size="18" text-anchor="middle" x="275.0" y="95.0">2 bit</text>
    <text fill="black" font-family="sans-serif" font-size="18" text-anchor="middle" x="275.0" y="119.4">DAC</text>
  </g>
  <g id="symbol" transform="translate(200.0,0.0)">
    <rect fill="none" height="75.0" stroke="none" width="100" x="-50.0" y="-37.5"/>
    <rect fill="white" height="75.0" stroke="black" stroke-width="2" width="100" x="-50.0" y="-37.5"/>
  </g>
  <g id="text">
    <text fill="black" font-family="sans-serif" font-size="18" text-anchor="middle" x="200.0" y="7.2">SAH</text>
  </g>
  <g id="symbol" transform="translate(375.0,0) scale(-1,1) rotate(-90)">
    <rect fill="none" height="100" stroke="none" width="100" x="-50.0" y="-50.0"/>
    <circle cx="0" cy="0" fill="white" r="25.0" stroke="black" stroke-width="2"/>
    <line stroke="black" stroke-linecap="round" stroke-width="2" x1="-12.5" x2="12.5" y1="0" y2="0"/>
    <line stroke="black" stroke-linecap="round" stroke-width="2" x1="0" x2="0" y1="-12.5" y2="12.5"/>
  </g>
  <g id="text"/>
  <g id="symbol" transform="translate(350.0,0)">
    <rect fill="none" height="50" stroke="none" width="50" x="-25.0" y="-25.0"/>
  </g>
  <g id="text">
    <text fill="black" font-family="sans-serif" font-size="18" text-anchor="end" x="345.0" y="-5">+</text>
  </g>
  <g id="symbol" transform="translate(375.0,25.0)">
    <rect fill="none" height="50" stroke="none" width="50" x="-25.0" y="-25.0"/>
  </g>
  <g id="text">
    <text fill="black" font-family="sans-serif" font-size="18" text-anchor="start" x="380.0" y="44.4">−</text>
  </g>
  <g id="symbol" transform="translate(475.0,0)">
    <rect fill="none" height="100" stroke="none" width="100" x="-50.0" y="-50.0"/>
    <polygon fill="white" points="50.0,0 -50.0,-50.0 -50.0,50.0" stroke="black" stroke-linecap="round" stroke-width="2"/>
  </g>
  <g id="text">
    <text fill="black" font-family="sans-serif" font-size="18" text-anchor="middle" x="462.5" y="7.2">4×</text>
  </g>
  <g id="wire">
    <polyline fill="none" points="0,0 150.0,0.0" stroke="black" stroke-linecap="round" stroke-width="2"/>
  </g>
  <g id="wire">
    <polyline fill="none" points="250.0,0.0 350.0,0" stroke="black" stroke-linecap="round" stroke-width="2"/>
  </g>
  <g id="wire">
    <polyline fill="none" points="400.0,0 425.0,0" stroke="black" stroke-linecap="round" stroke-width="2"/>
  </g>
  <g id="wire">
    <polyline fill="none" points="50,0 50,100.0 75.0,100.0" stroke="black" stroke-linecap="round" stroke-width="2"/>
  </g>
  <g id="wire">
    <polyline fill="none" points="175.0,100.0 225.0,100.0" stroke="black" stroke-linecap="round" stroke-width="2"/>
  </g>
  <g id="wire">
    <polyline fill="none" points="325.0,100.0 375.0,100.0 375.0,25.0" stroke="black" stroke-linecap="round" stroke-width="2"/>
  </g>
  <g id="symbol" transform="translate(300.0,250.0)">
    <rect fill="none" height="75.0" stroke="none" width="100" x="-50.0" y="-37.5"/>
    <rect fill="white" height="75.0" stroke="black" stroke-width="2" width="100" x="-50.0" y="-37.5"/>
  </g>
  <g id="text">
    <text fill="black" font-family="sans-serif" font-size="18" text-anchor="middle" x="300.0" y="257.2">Stage 2</text>
  </g>
  <g id="symbol" transform="translate(450.0,250.0)">
    <rect fill="none" height="75.0" stroke="none" width="100" x="-50.0" y="-37.5"/>
    <rect fill="white" height="75.0" stroke="black" stroke-width="2" width="100" x="-50.0" y="-37.5"/>
  </g>
  <g id="text">
    <text fill="black" font-family="sans-serif" font-size="18" text-anchor="middle" x="450.0" y="257.2">Stage 3</text>
  </g>
  <g id="symbol" transform="translate(600.0,250.0)">
    <rect fill="none" height="75.0" stroke="none" width="100" x="-50.0" y="-37.5"/>
    <rect fill="white" height="75.0" stroke="black" stroke-width="2" width="100" x="-50.0" y="-37.5"/>
  </g>
  <g id="text">
    <text fill="black" font-family="sans-serif" font-size="18" text-anchor="middle" x="600.0" y="245.0">4 bit</text>
    <text fill="black" font-family="sans-serif" font-size="18" text-anchor="middle" x="600.0" y="269.4">Flash</text>
  </g>
  <g id="wire">
    <polyline fill="none" points="350.0,250.0 400.0,250.0" stroke="black" stroke-linecap="round" stroke-width="2"/>
  </g>
  <g id="wire">
    <polyline fill="none" points="500.0,250.0 550.0,250.0" stroke="black" stroke-linecap="round" stroke-width="2"/>
  </g>
  <g id="wire">
    <polyline fill="none" points="525.0,0 575.0,0 575.0,187.5 225.0,187.5 225.0,250.0 250.0,250.0" stroke="black" stroke-linecap="round" stroke-width="2"/>
  </g>
  <g id="symbol" transform="translate(400.0,362.5)">
    <rect fill="none" height="50" stroke="none" width="450" x="-225.0" y="-25.0"/>
    <rect fill="white" height="50" stroke="black" stroke-width="2" width="450" x="-225.0" y="-25.0"/>
  </g>
  <g id="text">
    <text fill="black" font-family="sans-serif" font-size="18" text-anchor="middle" x="400.0" y="369.7">Digital Error Correction</text>
  </g>
  <g id="symbol" transform="translate(675.0,362.5)">
    <rect fill="none" height="50" stroke="none" width="100" x="-50.0" y="-25.0"/>
    <circle cx="4" cy="0" fill="white" r="4" stroke="black" stroke-width="2"/>
  </g>
  <g id="text">
    <text fill="black" font-family="sans-serif" font-size="18" text-anchor="start" x="688.0" y="369.7">out</text>
  </g>
  <g id="wire">
    <polyline fill="none" points="625.0,362.5 675.0,362.5" stroke="black" stroke-linecap="round" stroke-width="2"/>
  </g>
  <g id="symbol" transform="translate(650.0,362.5)">
    <rect fill="none" height="50" stroke="none" width="50" x="-25.0" y="-25.0"/>
    <line stroke="black" stroke-width="2" x1="-6.0" x2="6.0" y1="6.0" y2="-6.0"/>
  </g>
  <g id="text">
    <text fill="black" font-family="sans-serif" font-size="18" text-anchor="middle" x="650.0" y="387.9">10</text>
  </g>
  <g id="wire">
    <polyline fill="none" points="200.0,100.0 200.0,337.5" stroke="black" stroke-linecap="round" stroke-width="2"/>
  </g>
  <g id="wire">
    <polyline fill="none" points="300.0,287.5 300.0,337.5" stroke="black" stroke-linecap="round" stroke-width="2"/>
  </g>
  <g id="wire">
    <polyline fill="none" points="450.0,287.5 450.0,337.5" stroke="black" stroke-linecap="round" stroke-width="2"/>
  </g>
  <g id="wire">
    <polyline fill="none" points="600.0,287.5 600.0,337.5" stroke="black" stroke-linecap="round" stroke-width="2"/>
  </g>
  <g id="symbol" transform="translate(200.0,312.5)">
    <rect fill="none" height="50" stroke="none" width="50" x="-25.0" y="-25.0"/>
    <line stroke="black" stroke-width="2" x1="-6.0" x2="6.0" y1="6.0" y2="-6.0"/>
  </g>
  <g id="text">
    <text fill="black" font-family="sans-serif" font-size="18" text-anchor="end" x="192.0" y="319.7">2</text>
  </g>
  <g id="symbol" transform="translate(300.0,312.5)">
    <rect fill="none" height="50" stroke="none" width="50" x="-25.0" y="-25.0"/>
    <line stroke="black" stroke-width="2" x1="-6.0" x2="6.0" y1="6.0" y2="-6.0"/>
  </g>
  <g id="text">
    <text fill="black" font-family="sans-serif" font-size="18" text-anchor="end" x="292.0" y="319.7">2</text>
  </g>
  <g id="symbol" transform="translate(450.0,312.5)">
    <rect fill="none" height="50" stroke="none" width="50" x="-25.0" y="-25.0"/>
    <line stroke="black" stroke-width="2" x1="-6.0" x2="6.0" y1="6.0" y2="-6.0"/>
  </g>
  <g id="text">
    <text fill="black" font-family="sans-serif" font-size="18" text-anchor="end" x="442.0" y="319.7">2</text>
  </g>
  <g id="symbol" transform="translate(600.0,312.5)">
    <rect fill="none" height="50" stroke="none" width="50" x="-25.0" y="-25.0"/>
    <line stroke="black" stroke-width="2" x1="-6.0" x2="6.0" y1="6.0" y2="-6.0"/>
  </g>
  <g id="text">
    <text fill="black" font-family="sans-serif" font-size="18" text-anchor="end" x="592.0" y="319.7">4</text>
  </g>
</svg>
