<?xml version="1.0" encoding="utf-8" ?>
<svg xmlns="http://www.w3.org/2000/svg" xmlns:ev="http://www.w3.org/2001/xml-events" xmlns:xlink="http://www.w3.org/1999/xlink" baseProfile="full" height="100%" version="1.1" viewBox="-76.0,-76.0,353.0,153.0" width="100%">
  <defs/>
  <g id="symbol" transform="translate(0,0)">
    <rect fill="none" height="100" stroke="none" width="100" x="-50.0" y="-50.0"/>
    <rect fill="lightgray" height="100" stroke="black" stroke-width="1" width="100" x="-50.0" y="-50.0"/>
  </g>
  <g id="text"/>
  <g id="symbol" transform="translate(0,0)">
    <rect fill="none" height="100" stroke="none" width="100" x="-50.0" y="-50.0"/>
    <rect fill="none" height="4" stroke="none" width="92" x="-46.0" y="-2"/>
    <polyline fill="none" points="-50.0,0 -30,0 -25,-10 -20,0 -20,0 -15,10 -10,0 -10,0 -5,-10 0,0 0,0 5,10 10,0 10,0 15,-10 20,0 20,0 25,10 30,0 50.0,0" stroke="black" stroke-linecap="round" stroke-width="1"/>
  </g>
  <g id="text"/>
  <g id="symbol" transform="translate(0,0)">
    <rect fill="none" height="50" stroke="none" width="50" x="-25.0" y="-25.0"/>
    <circle cx="0" cy="0" fill="blue" r="4" stroke="blue" stroke-width="1"/>
  </g>
  <g id="text">
    <text fill="black" font-family="sans-serif" font-size="18" text-anchor="middle" x="0" y="23.4">C</text>
  </g>
  <g id="symbol" transform="translate(0,-50.0)">
    <rect fill="none" height="50" stroke="none" width="50" x="-25.0" y="-25.0"/>
    <circle cx="0" cy="0" fill="blue" r="4" stroke="blue" stroke-width="1"/>
  </g>
  <g id="text">
    <text fill="black" font-family="sans-serif" font-size="18" text-anchor="middle" x="0" y="-59.0">N</text>
  </g>
  <g id="symbol" transform="translate(50.0,-50.0)">
    <rect fill="none" height="50" stroke="none" width="50" x="-25.0" y="-25.0"/>
    <circle cx="0" cy="0" fill="blue" r="4" stroke="blue" stroke-width="1"/>
  </g>
  <g id="text">
    <text fill="black" font-family="sans-serif" font-size="18" text-anchor="start" x="59.0" y="-59.0">NE</text>
  </g>
  <g id="symbol" transform="translate(50.0,0)">
    <rect fill="none" height="50" stroke="none" width="50" x="-25.0" y="-25.0"/>
    <circle cx="0" cy="0" fill="blue" r="4" stroke="blue" stroke-width="1"/>
  </g>
  <g id="text">
    <text fill="black" font-family="sans-serif" font-size="18" text-anchor="start" x="59.0" y="7.2">E</text>
  </g>
  <g id="symbol" transform="translate(50.0,50.0)">
    <rect fill="none" height="50" stroke="none" width="50" x="-25.0" y="-25.0"/>
    <circle cx="0" cy="0" fill="blue" r="4" stroke="blue" stroke-width="1"/>
  </g>
  <g id="text">
    <text fill="black" font-family="sans-serif" font-size="18" text-anchor="start" x="59.0" y="73.4">SE</text>
  </g>
  <g id="symbol" transform="translate(0,50.0)">
    <rect fill="none" height="50" stroke="none" width="50" x="-25.0" y="-25.0"/>
    <circle cx="0" cy="0" fill="blue" r="4" stroke="blue" stroke-width="1"/>
  </g>
  <g id="text">
    <text fill="black" font-family="sans-serif" font-size="18" text-anchor="middle" x="0" y="73.4">S</text>
  </g>
  <g id="symbol" transform="translate(-50.0,50.0)">
    <rect fill="none" height="50" stroke="none" width="50" x="-25.0" y="-25.0"/>
    <circle cx="0" cy="0" fill="blue" r="4" stroke="blue" stroke-width="1"/>
  </g>
  <g id="text">
    <text fill="black" font-family="sans-serif" font-size="18" text-anchor="end" x="-59.0" y="73.4">SW</text>
  </g>
  <g id="symbol" transform="translate(-50.0,0)">
    <rect fill="none" height="50" stroke="none" width="50" x="-25.0" y="-25.0"/>
    <circle cx="0" cy="0" fill="blue" r="4" stroke="blue" stroke-width="1"/>
  </g>
  <g id="text">
    <text fill="black" font-family="sans-serif" font-size="18" text-anchor="end" x="-59.0" y="7.2">W</text>
  </g>
  <g id="symbol" transform="translate(-50.0,-50.0)">
    <rect fill="none" height="50" stroke="none" width="50" x="-25.0" y="-25.0"/>
    <circle cx="0" cy="0" fill="blue" r="4" stroke="blue" stroke-width="1"/>
  </g>
  <g id="text">
    <text fill="black" font-family="sans-serif" font-size="18" text-anchor="end" x="-59.0" y="-59.0">NW</text>
  </g>
  <g id="symbol" transform="translate(200,0)">
    <rect fill="none" height="100" stroke="none" width="100" x="-50.0" y="-50.0"/>
    <rect fill="lightgray" height="100" stroke="black" stroke-width="1" width="100" x="-50.0" y="-50.0"/>
  </g>
  <g id="text"/>
  <g id="symbol" transform="translate(200,0) rotate(-90)">
    <rect fill="none" height="100" stroke="none" width="100" x="-50.0" y="-50.0"/>
    <rect fill="none" height="4" stroke="none" width="92" x="-46.0" y="-2"/>
    <polyline fill="none" points="-50.0,0 -30,0 -25,-10 -20,0 -20,0 -15,10 -10,0 -10,0 -5,-10 0,0 0,0 5,10 10,0 10,0 15,-10 20,0 20,0 25,10 30,0 50.0,0" stroke="black" stroke-linecap="round" stroke-width="1"/>
  </g>
  <g id="text"/>
  <g id="symbol" transform="translate(200,0)">
    <rect fill="none" height="50" stroke="none" width="50" x="-25.0" y="-25.0"/>
    <circle cx="0" cy="0" fill="blue" r="4" stroke="blue" stroke-width="1"/>
  </g>
  <g id="text">
    <text fill="black" font-family="sans-serif" font-size="18" text-anchor="start" x="209" y="7.2">C</text>
  </g>
  <g id="symbol" transform="translate(200,-50.0)">
    <rect fill="none" height="50" stroke="none" width="50" x="-25.0" y="-25.0"/>
    <circle cx="0" cy="0" fill="blue" r="4" stroke="blue" stroke-width="1"/>
  </g>
  <g id="text">
    <text fill="black" font-family="sans-serif" font-size="18" text-anchor="middle" x="200" y="-59.0">N</text>
  </g>
  <g id="symbol" transform="translate(250.0,-50.0)">
    <rect fill="none" height="50" stroke="none" width="50" x="-25.0" y="-25.0"/>
    <circle cx="0" cy="0" fill="blue" r="4" stroke="blue" stroke-width="1"/>
  </g>
  <g id="text">
    <text fill="black" font-family="sans-serif" font-size="18" text-anchor="start" x="259.0" y="-59.0">NE</text>
  </g>
  <g id="symbol" transform="translate(250.0,0)">
    <rect fill="none" height="50" stroke="none" width="50" x="-25.0" y="-25.0"/>
    <circle cx="0" cy="0" fill="blue" r="4" stroke="blue" stroke-width="1"/>
  </g>
  <g id="text">
    <text fill="black" font-family="sans-serif" font-size="18" text-anchor="start" x="259.0" y="7.2">E</text>
  </g>
  <g id="symbol" transform="translate(250.0,50.0)">
    <rect fill="none" height="50" stroke="none" width="50" x="-25.0" y="-25.0"/>
    <circle cx="0" cy="0" fill="blue" r="4" stroke="blue" stroke-width="1"/>
  </g>
  <g id="text">
    <text fill="black" font-family="sans-serif" font-size="18" text-anchor="start" x="259.0" y="73.4">SE</text>
  </g>
  <g id="symbol" transform="translate(200,50.0)">
    <rect fill="none" height="50" stroke="none" width="50" x="-25.0" y="-25.0"/>
    <circle cx="0" cy="0" fill="blue" r="4" stroke="blue" stroke-width="1"/>
  </g>
  <g id="text">
    <text fill="black" font-family="sans-serif" font-size="18" text-anchor="middle" x="200" y="73.4">S</text>
  </g>
  <g id="symbol" transform="translate(150.0,50.0)">
    <rect fill="none" height="50" stroke="none" width="50" x="-25.0" y="-25.0"/>
    <circle cx="0" cy="0" fill="blue" r="4" stroke="blue" stroke-width="1"/>
  </g>
  <g id="text">
    <text fill="black" font-family="sans-serif" font-size="18" text-anchor="end" x="141.0" y="73.4">SW</text>
  </g>
  <g id="symbol" transform="translate(150.0,0)">
    <rect fill="none" height="50" stroke="none" width="50" x="-25.0" y="-25.0"/>
    <circle cx="0" cy="0" fill="blue" r="4" stroke="blue" stroke-width="1"/>
  </g>
  <g id="text">
    <text fill="black" font-family="sans-serif" font-size="18" text-anchor="end" x="141.0" y="7.2">W</text>
  </g>
  <g id="symbol" transform="translate(150.0,-50.0)">
    <rect fill="none" height="50" stroke="none" width="50" x="-25.0" y="-25.0"/>
    <circle cx="0" cy="0" fill="blue" r="4" stroke="blue" stroke-width="1"/>
  </g>
  <g id="text">
    <text fill="black" font-family="sans-serif" font-size="18" text-anchor="end" x="141.0" y="-59.0">NW</text>
  </g>
</svg>
