<?xml version="1.0" encoding="utf-8" ?>
<svg xmlns="http://www.w3.org/2000/svg" xmlns:ev="http://www.w3.org/2001/xml-events" xmlns:xlink="http://www.w3.org/1999/xlink" baseProfile="full" height="100%" version="1.1" viewBox="-51.0,-51.0,553.0,328.0" width="100%">
  <defs/>
  <g id="symbol" transform="translate(0,0)">
    <rect fill="none" height="100" stroke="none" width="100" x="-50.0" y="-50.0"/>
    <rect fill="none" height="92" stroke="none" width="4" x="48.0" y="-46.0"/>
    <polyline fill="none" points="50.0,-50.0 50.0,-37.5 0,-25.0 0,25.0 50.0,37.5 50.0,50.0" stroke="black" stroke-linecap="round" stroke-width="1"/>
    <line fill="none" stroke="black" stroke-linecap="square" stroke-width="3" x1="0" x2="0" y1="-37.5" y2="37.5"/>
    <line fill="none" stroke="black" stroke-linecap="round" stroke-width="1" x1="-50.0" x2="0" y1="0" y2="0"/>
    <polygon fill="black" points="10.0,19.0 40.0,25.0 10.0,31.0" stroke="none" transform="rotate(14.036243467926477,0,25.0)"/>
  </g>
  <g id="text"/>
  <g id="symbol" transform="translate(0,75.0)">
    <rect fill="none" height="50" stroke="none" width="50" x="-25.0" y="-25.0"/>
  </g>
  <g id="text">
    <text fill="black" font-family="sans-serif" font-size="18" text-anchor="middle" x="0" y="82.2">orient='v'</text>
  </g>
  <g id="symbol" transform="translate(150.0,0) scale(-1,1)">
    <rect fill="none" height="100" stroke="none" width="100" x="-50.0" y="-50.0"/>
    <rect fill="none" height="92" stroke="none" width="4" x="48.0" y="-46.0"/>
    <polyline fill="none" points="50.0,-50.0 50.0,-37.5 0,-25.0 0,25.0 50.0,37.5 50.0,50.0" stroke="black" stroke-linecap="round" stroke-width="1"/>
    <line fill="none" stroke="black" stroke-linecap="square" stroke-width="3" x1="0" x2="0" y1="-37.5" y2="37.5"/>
    <line fill="none" stroke="black" stroke-linecap="round" stroke-width="1" x1="-50.0" x2="0" y1="0" y2="0"/>
    <polygon fill="black" points="10.0,19.0 40.0,25.0 10.0,31.0" stroke="none" transform="rotate(14.036243467926477,0,25.0)"/>
  </g>
  <g id="text"/>
  <g id="symbol" transform="translate(150.0,75.0)">
    <rect fill="none" height="50" stroke="none" width="50" x="-25.0" y="-25.0"/>
  </g>
  <g id="text">
    <text fill="black" font-family="sans-serif" font-size="18" text-anchor="middle" x="150.0" y="82.2">orient='v|'</text>
  </g>
  <g id="symbol" transform="translate(300.0,0) scale(1,-1)">
    <rect fill="none" height="100" stroke="none" width="100" x="-50.0" y="-50.0"/>
    <rect fill="none" height="92" stroke="none" width="4" x="48.0" y="-46.0"/>
    <polyline fill="none" points="50.0,-50.0 50.0,-37.5 0,-25.0 0,25.0 50.0,37.5 50.0,50.0" stroke="black" stroke-linecap="round" stroke-width="1"/>
    <line fill="none" stroke="black" stroke-linecap="square" stroke-width="3" x1="0" x2="0" y1="-37.5" y2="37.5"/>
    <line fill="none" stroke="black" stroke-linecap="round" stroke-width="1" x1="-50.0" x2="0" y1="0" y2="0"/>
    <polygon fill="black" points="10.0,19.0 40.0,25.0 10.0,31.0" stroke="none" transform="rotate(14.036243467926477,0,25.0)"/>
  </g>
  <g id="text"/>
  <g id="symbol" transform="translate(300.0,75.0)">
    <rect fill="none" height="50" stroke="none" width="50" x="-25.0" y="-25.0"/>
  </g>
  <g id="text">
    <text fill="black" font-family="sans-serif" font-size="18" text-anchor="middle" x="300.0" y="82.2">orient='v-'</text>
  </g>
  <g id="symbol" transform="translate(450.0,0) scale(-1,1) scale(1,-1)">
    <rect fill="none" height="100" stroke="none" width="100" x="-50.0" y="-50.0"/>
    <rect fill="none" height="92" stroke="none" width="4" x="48.0" y="-46.0"/>
    <polyline fill="none" points="50.0,-50.0 50.0,-37.5 0,-25.0 0,25.0 50.0,37.5 50.0,50.0" stroke="black" stroke-linecap="round" stroke-width="1"/>
    <line fill="none" stroke="black" stroke-linecap="square" stroke-width="3" x1="0" x2="0" y1="-37.5" y2="37.5"/>
    <line fill="none" stroke="black" stroke-linecap="round" stroke-width="1" x1="-50.0" x2="0" y1="0" y2="0"/>
    <polygon fill="black" points="10.0,19.0 40.0,25.0 10.0,31.0" stroke="none" transform="rotate(14.036243467926477,0,25.0)"/>
  </g>
  <g id="text"/>
  <g id="symbol" transform="translate(450.0,75.0)">
    <rect fill="none" height="50" stroke="none" width="50" x="-25.0" y="-25.0"/>
  </g>
  <g id="text">
    <text fill="black" font-family="sans-serif" font-size="18" text-anchor="middle" x="450.0" y="82.2">orient='v|-'</text>
  </g>
  <g id="symbol" transform="translate(0,175.0) rotate(-90)">
    <rect fill="none" height="100" stroke="none" width="100" x="-50.0" y="-50.0"/>
    <rect fill="none" height="92" stroke="none" width="4" x="48.0" y="-46.0"/>
    <polyline fill="none" points="50.0,-50.0 50.0,-37.5 0,-25.0 0,25.0 50.0,37.5 50.0,50.0" stroke="black" stroke-linecap="round" stroke-width="1"/>
    <line fill="none" stroke="black" stroke-linecap="square" stroke-width="3" x1="0" x2="0" y1="-37.5" y2="37.5"/>
    <line fill="none" stroke="black" stroke-linecap="round" stroke-width="1" x1="-50.0" x2="0" y1="0" y2="0"/>
    <polygon fill="black" points="10.0,19.0 40.0,25.0 10.0,31.0" stroke="none" transform="rotate(14.036243467926477,0,25.0)"/>
  </g>
  <g id="text"/>
  <g id="symbol" transform="translate(0,250.0)">
    <rect fill="none" height="50" stroke="none" width="50" x="-25.0" y="-25.0"/>
  </g>
  <g id="text">
    <text fill="black" font-family="sans-serif" font-size="18" text-anchor="middle" x="0" y="257.2">orient='h'</text>
  </g>
  <g id="symbol" transform="translate(150.0,175.0) scale(-1,1) rotate(-90)">
    <rect fill="none" height="100" stroke="none" width="100" x="-50.0" y="-50.0"/>
    <rect fill="none" height="92" stroke="none" width="4" x="48.0" y="-46.0"/>
    <polyline fill="none" points="50.0,-50.0 50.0,-37.5 0,-25.0 0,25.0 50.0,37.5 50.0,50.0" stroke="black" stroke-linecap="round" stroke-width="1"/>
    <line fill="none" stroke="black" stroke-linecap="square" stroke-width="3" x1="0" x2="0" y1="-37.5" y2="37.5"/>
    <line fill="none" stroke="black" stroke-linecap="round" stroke-width="1" x1="-50.0" x2="0" y1="0" y2="0"/>
    <polygon fill="black" points="10.0,19.0 40.0,25.0 10.0,31.0" stroke="none" transform="rotate(14.036243467926477,0,25.0)"/>
  </g>
  <g id="text"/>
  <g id="symbol" transform="translate(150.0,250.0)">
    <rect fill="none" height="50" stroke="none" width="50" x="-25.0" y="-25.0"/>
  </g>
  <g id="text">
    <text fill="black" font-family="sans-serif" font-size="18" text-anchor="middle" x="150.0" y="257.2">orient='h|'</text>
  </g>
  <g id="symbol" transform="translate(300.0,175.0) scale(1,-1) rotate(-90)">
    <rect fill="none" height="100" stroke="none" width="100" x="-50.0" y="-50.0"/>
    <rect fill="none" height="92" stroke="none" width="4" x="48.0" y="-46.0"/>
    <polyline fill="none" points="50.0,-50.0 50.0,-37.5 0,-25.0 0,25.0 50.0,37.5 50.0,50.0" stroke="black" stroke-linecap="round" stroke-width="1"/>
    <line fill="none" stroke="black" stroke-linecap="square" stroke-width="3" x1="0" x2="0" y1="-37.5" y2="37.5"/>
    <line fill="none" stroke="black" stroke-linecap="round" stroke-width="1" x1="-50.0" x2="0" y1="0" y2="0"/>
    <polygon fill="black" points="10.0,19.0 40.0,25.0 10.0,31.0" stroke="none" transform="rotate(14.036243467926477,0,25.0)"/>
  </g>
  <g id="text"/>
  <g id="symbol" transform="translate(300.0,250.0)">
    <rect fill="none" height="50" stroke="none" width="50" x="-25.0" y="-25.0"/>
  </g>
  <g id="text">
    <text fill="black" font-family="sans-serif" font-size="18" text-anchor="middle" x="300.0" y="257.2">orient='h-'</text>
  </g>
  <g id="symbol" transform="translate(450.0,175.0) scale(-1,1) scale(1,-1) rotate(-90)">
    <rect fill="none" height="100" stroke="none" width="100" x="-50.0" y="-50.0"/>
    <rect fill="none" height="92" stroke="none" width="4" x="48.0" y="-46.0"/>
    <polyline fill="none" points="50.0,-50.0 50.0,-37.5 0,-25.0 0,25.0 50.0,37.5 50.0,50.0" stroke="black" stroke-linecap="round" stroke-width="1"/>
    <line fill="none" stroke="black" stroke-linecap="square" stroke-width="3" x1="0" x2="0" y1="-37.5" y2="37.5"/>
    <line fill="none" stroke="black" stroke-linecap="round" stroke-width="1" x1="-50.0" x2="0" y1="0" y2="0"/>
    <polygon fill="black" points="10.0,19.0 40.0,25.0 10.0,31.0" stroke="none" transform="rotate(14.036243467926477,0,25.0)"/>
  </g>
  <g id="text"/>
  <g id="symbol" transform="translate(450.0,250.0)">
    <rect fill="none" height="50" stroke="none" width="50" x="-25.0" y="-25.0"/>
  </g>
  <g id="text">
    <text fill="black" font-family="sans-serif" font-size="18" text-anchor="middle" x="450.0" y="257.2">orient='h|-'</text>
  </g>
</svg>
